<svg id="svg" version="1.1" width="400" height="400" viewBox="0 0 400 400" xmlns="http://www.w3.org/2000/svg" xmlns:xlink="http://www.w3.org/1999/xlink" ><g id="svgg"><path id="path0" d="M117.088 42.227 C 108.866 43.963,107.185 49.124,106.974 73.281 C 106.861 86.239,106.535 85.386,111.465 85.027 C 115.319 84.746,115.045 85.271,115.367 77.539 L 115.636 71.093 121.614 71.195 L 127.593 71.296 127.687 77.593 C 127.801 85.253,127.761 85.185,132.192 85.185 C 136.702 85.185,136.342 86.379,136.505 70.906 C 136.695 52.926,136.348 50.139,133.440 46.271 C 130.572 42.454,123.866 40.796,117.088 42.227 M39.531 42.625 C 33.749 43.987,29.872 49.839,30.526 56.218 C 31.068 61.516,33.939 64.166,42.481 67.258 C 48.769 69.534,50.000 70.473,50.000 72.991 C 50.000 79.412,40.169 79.227,38.701 72.778 C 38.177 70.475,37.386 70.013,33.957 70.005 C 30.596 69.998,29.998 70.350,30.009 72.328 C 30.043 78.238,33.515 83.321,38.567 84.855 C 49.693 88.234,59.316 81.880,58.377 71.775 C 57.814 65.717,55.928 63.883,46.852 60.565 C 39.129 57.741,37.770 56.428,39.209 53.174 C 41.282 48.490,48.673 49.483,50.174 54.647 C 50.826 56.889,51.104 57.024,55.066 57.032 C 58.550 57.039,59.061 56.585,58.767 53.742 C 57.893 45.275,49.319 40.319,39.531 42.625 M187.722 42.499 C 183.950 42.592,182.938 42.731,182.536 43.215 C 181.500 44.462,181.481 83.483,182.516 84.517 C 183.321 85.321,198.837 85.183,201.542 84.349 C 206.139 82.931,209.455 78.816,210.250 73.546 C 211.506 65.207,210.696 52.740,208.642 48.825 C 205.873 43.545,201.305 42.164,187.722 42.499 M66.879 43.082 C 66.250 43.542,66.198 44.845,66.026 64.172 L 65.843 84.772 67.088 85.098 L 68.333 85.424 66.418 85.654 C 57.840 86.684,56.052 91.478,55.744 114.266 C 55.535 129.692,55.202 128.519,59.796 128.519 C 63.803 128.519,63.649 128.799,63.944 120.985 L 64.191 114.444 69.040 114.449 C 71.707 114.451,74.539 114.560,75.334 114.691 L 76.778 114.930 76.550 120.996 C 76.265 128.587,76.225 128.519,80.899 128.519 C 85.553 128.519,85.185 129.833,85.184 113.214 C 85.182 94.634,84.964 93.165,81.585 88.976 C 80.077 87.106,78.675 86.297,75.975 85.741 L 73.987 85.331 74.029 77.758 C 74.052 73.593,74.180 64.254,74.313 57.004 L 74.554 43.822 73.676 43.208 C 72.574 42.435,67.882 42.349,66.879 43.082 M82.812 43.077 C 82.194 43.529,82.137 44.926,81.950 63.962 L 81.749 84.363 82.533 84.783 C 83.714 85.415,100.072 85.300,100.956 84.653 C 101.793 84.042,101.860 77.506,101.035 76.982 C 100.771 76.815,98.206 76.675,95.335 76.672 L 90.115 76.667 90.294 60.193 C 90.435 47.263,90.373 43.598,90.006 43.156 C 89.395 42.419,83.796 42.357,82.812 43.077 M144.488 43.241 C 143.715 43.885,143.140 83.603,143.887 84.811 C 144.300 85.479,151.364 85.286,151.627 84.599 C 151.751 84.277,151.856 78.652,151.860 72.099 L 151.869 60.185 153.072 62.407 C 154.406 64.873,156.036 67.614,159.455 73.148 C 160.714 75.185,162.862 78.727,164.229 81.019 L 166.714 85.185 170.169 85.185 C 174.416 85.185,173.952 86.820,174.109 71.296 C 174.418 40.726,174.675 42.593,170.155 42.593 C 165.671 42.593,165.939 41.777,165.832 55.731 L 165.741 67.574 164.114 64.806 C 163.220 63.283,161.941 61.204,161.272 60.185 C 160.603 59.167,158.985 56.417,157.677 54.074 C 155.135 49.522,151.893 44.303,150.947 43.241 C 150.503 42.742,149.782 42.593,147.819 42.593 C 145.932 42.593,145.064 42.762,144.488 43.241 M218.611 43.143 L 217.778 43.746 217.778 64.240 L 217.778 84.735 218.750 84.979 C 221.176 85.587,242.255 85.076,242.617 84.399 C 243.067 83.558,243.067 77.516,242.617 77.238 C 242.427 77.120,238.594 76.917,234.099 76.786 L 225.926 76.549 225.926 71.793 L 225.926 67.037 233.543 67.037 C 243.058 67.037,242.593 67.255,242.593 62.804 C 242.593 58.548,243.353 58.889,233.859 58.889 L 226.296 58.889 226.296 55.058 L 226.296 51.226 232.027 50.979 C 235.179 50.843,238.704 50.843,239.860 50.979 C 242.673 51.310,242.963 50.899,242.963 46.584 C 242.963 43.680,242.882 43.279,242.243 43.044 C 240.550 42.418,219.491 42.507,218.611 43.143 M251.410 42.844 C 250.132 43.181,250.017 45.027,250.053 64.740 C 250.094 87.122,249.717 85.185,254.030 85.185 C 258.339 85.185,258.115 85.668,258.233 76.111 L 258.333 67.963 259.282 67.853 C 260.302 67.734,260.138 67.445,264.732 77.443 C 267.448 83.353,270.073 85.344,274.864 85.127 C 278.181 84.976,279.138 84.368,279.493 82.182 C 279.887 79.752,278.901 78.270,276.687 77.966 C 274.064 77.605,272.991 76.568,270.771 72.247 C 268.457 67.742,268.454 67.817,271.037 66.589 C 279.967 62.342,281.191 49.096,273.060 44.708 C 269.856 42.979,255.564 41.749,251.410 42.844 M124.815 50.649 C 126.942 51.711,127.878 54.091,128.078 58.947 L 128.243 62.963 121.899 62.963 L 115.556 62.963 115.558 60.093 C 115.562 54.505,116.619 51.188,118.657 50.365 C 120.044 49.805,123.438 49.961,124.815 50.649 M197.192 50.706 C 201.507 51.243,202.363 53.676,202.165 64.835 C 201.977 75.442,201.466 76.206,194.444 76.378 L 190.185 76.481 190.088 63.891 C 190.034 56.967,190.070 51.092,190.169 50.836 C 190.369 50.314,193.570 50.255,197.192 50.706 M266.066 50.773 C 268.888 51.557,270.514 54.601,269.651 57.483 C 269.015 59.604,267.916 60.000,262.665 60.000 L 258.256 60.000 258.295 55.648 C 258.316 53.255,258.468 51.088,258.633 50.833 C 259.010 50.251,264.037 50.210,266.066 50.773 M32.342 86.184 C 31.898 86.270,31.371 86.539,31.171 86.781 C 30.518 87.571,30.477 127.755,31.129 128.167 C 31.425 128.354,35.613 128.510,40.437 128.513 C 51.055 128.520,50.443 128.804,50.291 123.942 L 50.185 120.556 44.508 120.453 L 38.831 120.351 38.953 103.665 C 39.093 84.426,39.387 85.887,35.392 85.976 C 34.158 86.004,32.785 86.097,32.342 86.184 M93.825 86.184 C 92.314 86.478,92.222 87.696,92.222 107.481 C 92.222 123.899,92.297 126.478,92.805 127.459 L 93.387 128.585 102.342 128.429 C 112.721 128.249,113.662 128.036,116.816 125.153 C 122.282 120.158,121.584 110.645,115.568 108.153 C 114.272 107.617,114.138 107.184,115.165 106.858 C 116.589 106.406,119.472 102.771,120.173 100.544 C 122.393 93.485,117.429 87.325,108.704 86.314 C 105.511 85.944,95.505 85.856,93.825 86.184 M72.846 93.728 C 75.500 94.734,76.519 97.117,76.755 102.870 L 76.895 106.296 70.431 106.296 L 63.968 106.296 64.224 102.500 C 64.767 94.420,67.455 91.686,72.846 93.728 M109.344 94.607 C 112.202 95.963,113.035 101.220,110.634 102.744 C 109.516 103.453,105.753 103.824,102.839 103.511 L 100.431 103.254 100.425 98.828 C 100.419 94.626,100.460 94.385,101.228 94.062 C 102.411 93.565,107.928 93.935,109.344 94.607 M110.942 112.687 C 114.660 117.010,107.591 122.454,101.389 120.044 L 100.370 119.648 100.370 115.626 C 100.370 110.758,99.764 111.260,105.371 111.481 C 109.931 111.661,110.090 111.696,110.942 112.687 M180.116 160.553 C 179.682 160.857,178.558 162.440,177.617 164.071 C 176.676 165.702,175.734 167.037,175.524 167.037 C 175.314 167.037,173.995 166.847,172.592 166.616 L 170.041 166.194 169.786 164.160 C 169.195 159.431,165.615 159.497,166.121 164.227 L 166.365 166.502 164.212 167.418 C 163.027 167.921,161.944 168.384,161.804 168.445 C 161.665 168.507,161.179 167.895,160.724 167.086 C 158.763 163.597,155.726 165.576,157.542 169.159 L 158.453 170.957 157.125 172.679 L 155.797 174.401 154.722 173.497 C 151.963 171.176,150.253 173.813,152.728 176.573 L 153.974 177.963 153.188 180.054 L 152.402 182.145 150.987 181.419 C 147.530 179.646,146.552 182.847,149.907 184.949 C 151.652 186.042,151.757 186.459,151.080 189.611 C 150.629 191.714,150.503 191.777,148.805 190.742 C 147.218 189.774,145.700 189.780,145.178 190.755 C 144.531 191.962,145.077 192.831,147.255 194.061 L 149.292 195.210 148.575 196.216 C 146.856 198.628,146.420 198.784,145.067 197.472 C 142.603 195.084,140.118 197.056,142.222 199.731 C 143.175 200.942,143.169 200.967,141.844 201.429 C 140.799 201.793,140.671 201.734,139.900 200.541 C 138.881 198.964,138.015 198.648,136.834 199.422 C 135.812 200.092,135.677 201.000,136.445 202.050 C 136.921 202.701,136.838 202.832,135.437 203.627 L 133.910 204.494 132.159 203.674 C 128.986 202.188,126.816 205.168,129.937 206.727 C 131.566 207.541,131.515 207.439,131.084 209.002 C 130.722 210.314,130.639 210.370,129.083 210.370 C 125.277 210.370,125.106 213.622,128.889 214.064 C 131.485 214.368,131.502 215.852,128.921 216.769 C 123.300 218.765,121.132 223.368,123.473 228.333 C 125.394 232.406,127.056 233.085,135.701 233.330 C 143.421 233.550,143.427 233.552,142.629 236.663 C 142.192 238.369,142.209 238.630,142.796 239.279 C 144.935 241.643,147.537 236.461,146.101 232.699 C 145.092 230.057,143.797 229.648,136.413 229.638 C 128.518 229.627,127.138 229.065,126.286 225.511 C 125.291 221.367,130.815 218.090,133.731 221.095 L 135.260 222.670 134.618 223.862 C 133.186 226.521,135.983 227.814,138.020 225.434 C 139.026 224.258,139.170 224.209,141.186 224.356 L 143.298 224.511 143.547 226.173 C 144.091 229.798,147.698 229.048,147.242 225.404 L 147.001 223.469 148.335 223.059 C 149.693 222.643,150.370 223.270,150.370 224.942 C 150.370 225.939,151.539 227.037,152.601 227.037 C 154.207 227.037,154.606 226.004,153.909 223.656 C 153.261 221.475,153.310 221.321,154.816 220.796 C 155.877 220.426,155.964 220.475,156.652 221.823 C 157.473 223.432,158.491 223.867,159.606 223.086 C 160.505 222.456,160.578 221.475,159.832 220.033 C 159.317 219.037,159.337 218.973,160.285 218.540 C 160.830 218.292,161.331 218.227,161.398 218.396 C 162.627 221.511,164.202 222.391,165.367 220.613 C 165.911 219.782,165.913 219.576,165.390 218.323 C 164.326 215.776,166.309 214.145,167.586 216.517 C 168.468 218.155,169.781 218.532,170.856 217.457 C 171.672 216.640,171.672 216.637,170.572 214.009 C 169.965 212.558,172.168 211.940,173.208 213.269 C 175.262 215.894,177.970 213.507,176.049 210.764 C 175.451 209.911,175.467 209.853,176.512 209.017 C 177.889 207.915,177.966 207.924,178.520 209.264 C 179.299 211.143,181.874 211.199,182.152 209.342 C 182.215 208.921,181.908 207.873,181.470 207.014 L 180.673 205.452 181.798 204.327 L 182.923 203.202 184.601 204.749 C 186.395 206.403,186.688 206.509,187.802 205.913 C 189.069 205.235,188.706 203.671,186.863 201.863 L 185.207 200.237 185.996 198.915 C 187.208 196.885,187.246 196.872,189.023 197.913 C 193.297 200.418,194.792 197.324,190.603 194.644 L 188.660 193.401 189.043 191.311 C 189.394 189.393,189.495 189.238,190.269 189.432 C 193.245 190.179,194.354 190.112,194.988 189.144 C 196.131 187.399,195.192 186.629,190.842 185.744 C 189.738 185.519,189.630 185.364,189.407 183.682 C 189.086 181.267,189.013 181.375,191.414 180.741 C 195.584 179.640,194.411 176.540,190.145 177.388 C 188.823 177.650,187.697 177.804,187.642 177.729 C 187.421 177.430,185.926 174.766,185.926 174.673 C 185.926 174.618,187.157 173.794,188.661 172.841 C 191.550 171.011,192.108 170.160,191.234 168.913 C 190.427 167.760,189.351 167.984,186.298 169.941 L 183.522 171.720 181.668 170.424 C 180.649 169.711,179.677 169.012,179.509 168.869 C 179.341 168.727,180.061 167.102,181.110 165.257 C 183.090 161.776,183.192 160.822,181.647 160.229 C 180.893 159.940,181.035 159.910,180.116 160.553 M290.439 160.563 C 286.968 161.525,283.915 164.267,282.542 167.657 C 282.309 168.233,281.988 171.287,281.828 174.444 C 281.091 189.020,275.758 195.871,263.191 198.386 C 256.588 199.708,254.619 200.964,252.431 205.250 C 251.064 207.925,250.463 208.197,247.037 207.684 C 244.168 207.254,240.697 205.532,238.423 203.410 C 231.619 197.060,226.955 194.918,222.871 196.266 C 220.101 197.180,221.105 199.853,224.065 199.446 C 227.472 198.977,229.779 200.143,235.231 205.088 C 239.849 209.277,243.949 211.131,248.752 211.204 L 251.102 211.239 251.340 212.512 C 251.757 214.736,249.419 215.007,241.481 213.657 C 235.691 212.672,229.249 212.545,227.407 213.380 C 224.192 214.837,220.055 219.802,220.518 221.648 C 220.908 223.203,223.704 223.182,223.704 221.624 C 223.704 221.309,224.677 220.079,225.866 218.890 C 229.211 215.545,231.003 215.335,241.296 217.082 C 245.672 217.824,250.865 217.889,252.870 217.226 C 253.402 217.051,253.704 217.101,253.704 217.364 C 253.704 217.592,253.317 217.778,252.845 217.778 C 247.731 217.778,244.194 220.890,241.271 227.963 C 238.347 235.040,234.444 237.848,230.165 235.955 C 226.672 234.410,224.815 234.601,224.815 236.505 C 224.815 237.451,225.117 237.716,227.037 238.457 C 235.454 241.705,240.617 238.845,244.643 228.704 C 246.790 223.296,248.061 222.191,253.391 221.099 C 256.738 220.413,256.819 220.414,258.938 221.128 C 266.322 223.615,281.997 218.339,290.857 210.383 C 303.301 199.209,309.578 173.431,302.152 163.994 C 299.855 161.075,294.380 159.471,290.439 160.563 M297.285 164.495 C 300.540 166.029,301.812 168.849,301.836 174.582 C 301.932 198.379,286.625 216.137,264.104 218.356 C 256.853 219.070,252.102 211.830,255.896 205.847 C 257.395 203.484,258.922 202.702,264.138 201.626 C 278.064 198.753,284.421 190.691,285.133 175.000 C 285.578 165.194,290.232 161.171,297.285 164.495 M132.488 164.457 C 127.752 165.644,123.171 171.859,125.940 173.341 C 127.069 173.945,128.077 173.444,128.873 171.882 C 130.406 168.877,133.155 167.418,136.326 167.925 C 138.269 168.236,139.259 167.686,139.259 166.296 C 139.259 164.529,135.872 163.609,132.488 164.457 M176.550 171.640 C 185.476 175.879,188.451 186.458,183.422 196.073 C 177.356 207.671,146.242 224.129,138.168 220.010 C 131.855 216.790,132.961 207.974,139.936 205.921 C 149.258 203.177,153.320 198.346,154.980 188.029 C 157.395 173.022,165.882 166.574,176.550 171.640 M168.704 172.937 C 163.305 174.243,158.655 180.510,159.775 184.972 C 160.359 187.299,163.333 186.255,163.333 183.723 C 163.333 180.396,167.530 176.296,170.935 176.296 C 172.175 176.296,173.333 175.356,173.333 174.349 C 173.333 172.835,171.473 172.267,168.704 172.937 M49.074 174.423 C 37.019 176.567,28.616 181.163,25.329 187.411 L 24.259 189.444 24.259 200.000 L 24.259 210.556 25.329 212.589 C 35.390 231.711,87.276 230.614,95.213 211.111 C 95.977 209.234,95.977 190.766,95.213 188.889 C 90.672 177.732,68.883 170.900,49.074 174.423 M70.741 177.576 C 86.215 180.360,95.618 188.543,91.844 195.941 C 90.939 197.716,91.066 197.709,88.877 196.102 C 75.028 185.937,43.672 186.064,30.687 196.339 C 28.932 197.729,28.762 197.698,27.927 195.843 C 22.623 184.067,47.598 173.411,70.741 177.576 M169.815 179.058 C 166.916 180.116,164.802 183.581,165.331 186.404 C 166.456 192.398,174.563 193.906,177.620 188.690 C 180.738 183.369,175.549 176.966,169.815 179.058 M172.993 182.593 C 174.556 182.593,175.373 185.913,174.167 187.365 C 171.868 190.134,167.419 186.708,169.484 183.760 C 170.149 182.811,171.410 182.184,172.160 182.431 C 172.431 182.520,172.806 182.593,172.993 182.593 M127.684 184.056 C 126.877 185.208,127.295 186.240,128.830 186.881 C 130.370 187.524,130.727 187.974,130.735 189.278 C 130.746 191.126,133.245 191.919,134.089 190.343 C 135.838 187.074,129.753 181.102,127.684 184.056 M116.286 190.833 C 114.995 193.677,115.523 196.564,117.765 198.920 C 120.596 201.896,123.366 199.729,120.619 196.688 C 119.164 195.078,118.862 193.500,119.668 191.731 C 120.270 190.409,119.549 189.259,118.117 189.259 C 117.163 189.259,116.897 189.488,116.286 190.833 M70.556 192.388 C 76.863 193.496,81.858 195.309,86.019 197.998 C 88.985 199.916,89.004 200.001,86.823 201.501 C 73.637 210.573,47.115 210.757,33.624 201.869 C 30.756 199.979,30.758 199.960,34.206 197.726 C 42.234 192.522,58.076 190.196,70.556 192.388 M58.183 194.009 C 55.855 194.707,56.205 196.009,59.276 198.071 C 61.909 199.839,63.743 200.103,65.234 198.930 C 65.723 198.545,66.759 197.965,67.535 197.641 C 71.703 195.899,63.068 192.546,58.183 194.009 M65.066 195.630 C 65.743 195.875,66.289 196.166,66.281 196.278 C 66.248 196.703,63.618 198.148,62.877 198.148 C 61.898 198.148,58.451 195.964,58.727 195.518 C 59.028 195.030,63.634 195.112,65.066 195.630 M48.262 197.738 C 42.834 201.670,45.850 207.561,51.980 205.000 C 52.711 204.694,53.944 204.444,54.721 204.444 C 58.970 204.444,60.148 199.864,56.195 198.709 C 55.130 198.398,53.759 197.813,53.148 197.408 C 51.578 196.367,50.008 196.473,48.262 197.738 M53.184 199.074 C 54.141 199.583,55.161 200.000,55.450 200.000 C 57.131 200.000,57.603 201.198,56.451 202.542 C 56.349 202.662,52.953 203.374,49.811 203.935 C 47.661 204.319,46.002 202.205,47.206 200.616 C 49.046 198.188,50.710 197.759,53.184 199.074 M68.889 200.014 C 65.685 200.752,63.894 201.695,63.882 202.651 C 63.879 202.944,63.496 203.666,63.031 204.256 C 61.761 205.872,62.051 207.192,63.708 207.332 C 66.202 207.542,75.556 202.652,75.556 201.138 C 75.556 199.399,73.248 199.010,68.889 200.014 M33.888 205.754 C 49.994 214.761,79.900 212.852,91.019 202.108 L 92.593 200.587 92.593 204.991 C 92.593 210.140,92.106 211.539,89.359 214.286 C 79.504 224.141,52.592 226.312,36.852 218.521 C 29.414 214.840,27.314 211.939,27.096 205.045 L 26.956 200.646 29.211 202.523 C 30.451 203.555,32.556 205.009,33.888 205.754 M73.625 201.204 C 73.457 201.757,65.294 205.885,64.319 205.909 C 63.721 205.924,63.755 205.787,64.597 204.786 C 65.124 204.160,65.556 203.419,65.556 203.142 C 65.556 202.409,66.152 202.134,69.259 201.432 C 72.712 200.653,73.810 200.595,73.625 201.204 M187.860 212.428 C 185.974 213.750,187.206 215.801,189.652 215.410 C 190.982 215.197,191.277 215.294,192.248 216.265 C 193.766 217.783,194.612 217.981,195.556 217.037 C 198.195 214.397,191.108 210.153,187.860 212.428 M181.621 222.984 C 178.045 224.307,179.518 234.815,183.279 234.815 C 185.136 234.815,185.527 232.887,184.064 230.953 C 182.820 229.308,182.686 228.014,183.568 226.163 C 184.625 223.946,183.589 222.256,181.621 222.984 M160.232 229.080 C 157.751 231.561,163.562 236.621,167.609 235.504 C 170.217 234.784,169.679 232.449,166.831 232.128 C 165.040 231.926,163.954 231.181,163.225 229.653 C 162.680 228.510,161.103 228.209,160.232 229.080 M124.522 306.269 C 121.286 307.092,120.117 312.419,120.716 323.611 C 120.730 323.866,121.116 324.075,121.574 324.075 C 122.328 324.077,122.298 324.144,121.260 324.777 C 117.710 326.941,117.879 339.547,121.481 341.403 C 122.958 342.163,127.871 341.847,128.889 340.926 C 130.644 339.338,130.913 338.277,130.911 332.963 C 130.908 326.157,129.673 324.079,125.633 324.075 L 124.043 324.074 124.151 321.204 L 124.259 318.333 126.743 318.224 L 129.228 318.115 129.336 321.002 L 129.444 323.889 131.111 323.889 L 132.778 323.889 132.778 316.649 C 132.778 308.810,132.637 308.182,130.579 306.833 C 129.520 306.139,126.236 305.833,124.522 306.269 M30.708 306.389 C 30.691 306.440,30.604 314.444,30.515 324.177 L 30.355 341.872 35.640 341.769 L 40.926 341.667 41.037 340.146 L 41.148 338.626 39.185 338.390 C 38.106 338.261,36.514 338.153,35.648 338.151 L 34.074 338.148 34.074 336.311 L 34.074 334.473 37.315 334.366 L 40.556 334.259 40.556 332.600 C 40.556 331.199,40.440 330.934,39.815 330.904 C 39.407 330.884,37.949 330.839,36.574 330.804 L 34.074 330.741 34.074 329.259 L 34.074 327.778 37.400 327.778 C 40.602 327.778,40.735 327.744,40.950 326.890 C 41.550 324.498,41.251 324.269,37.389 324.154 L 33.853 324.049 33.871 319.248 C 33.892 313.610,33.815 313.687,35.866 317.227 C 37.959 320.840,38.374 320.831,40.437 317.130 L 42.037 314.259 42.141 319.059 C 42.199 321.699,42.374 323.949,42.531 324.059 C 42.688 324.169,43.264 325.759,43.813 327.593 C 44.361 329.426,45.607 333.343,46.581 336.296 L 48.353 341.667 49.893 341.779 C 51.830 341.921,51.615 342.323,54.845 332.502 C 57.586 324.165,57.598 323.955,55.329 324.141 C 53.715 324.274,53.952 323.811,51.440 331.759 C 50.780 333.847,50.144 335.555,50.027 335.553 C 49.910 335.552,49.066 333.031,48.150 329.951 C 47.235 326.872,46.288 324.276,46.046 324.183 C 45.725 324.060,45.596 321.695,45.569 315.471 C 45.527 305.897,45.601 306.296,43.873 306.296 C 42.653 306.296,42.518 306.445,40.323 310.206 C 39.069 312.357,37.918 313.982,37.766 313.818 C 37.614 313.653,36.833 312.269,36.031 310.741 C 33.698 306.301,33.694 306.296,32.133 306.296 C 31.367 306.296,30.726 306.338,30.708 306.389 M48.876 306.368 C 48.869 306.430,48.766 310.450,48.648 315.300 L 48.433 324.118 50.235 324.004 L 52.037 323.889 52.037 315.185 L 52.037 306.481 50.463 306.368 C 49.597 306.305,48.883 306.305,48.876 306.368 M57.556 306.999 C 55.714 308.122,55.121 310.157,55.135 315.311 C 55.152 321.998,56.424 324.054,60.556 324.070 L 62.407 324.078 61.396 324.909 C 59.680 326.320,59.196 328.124,59.209 333.066 C 59.227 340.271,60.474 341.967,65.610 341.772 C 70.401 341.590,71.289 340.213,71.289 332.963 C 71.289 326.043,70.072 324.079,65.783 324.075 L 63.974 324.074 64.957 323.301 C 66.261 322.275,67.037 320.705,67.037 319.092 C 67.037 317.073,64.113 317.057,63.384 319.073 C 62.664 321.063,59.896 321.415,58.996 319.630 C 58.405 318.457,58.367 312.091,58.944 310.994 C 60.043 308.908,62.618 309.215,63.434 311.530 C 63.637 312.106,65.708 312.604,66.626 312.297 C 67.920 311.866,66.570 308.160,64.704 307.022 C 63.079 306.031,59.164 306.018,57.556 306.999 M70.196 307.083 C 70.079 307.567,70.029 311.546,70.084 315.926 L 70.185 323.889 71.759 324.003 C 72.851 324.082,73.347 323.968,73.376 323.632 C 73.400 323.366,73.447 322.481,73.481 321.667 C 73.721 315.952,73.827 315.874,75.760 319.994 C 77.357 323.396,78.261 324.163,80.481 324.002 C 82.665 323.843,83.087 321.519,81.042 320.915 C 80.199 320.666,79.571 320.102,78.993 319.074 C 77.904 317.136,77.925 317.002,79.477 315.997 C 82.567 313.995,82.620 308.778,79.566 307.183 C 77.357 306.029,70.468 305.956,70.196 307.083 M86.949 306.876 C 83.296 308.858,83.364 321.791,87.037 323.606 C 87.921 324.043,87.892 324.063,86.389 324.069 C 85.146 324.073,84.811 324.210,84.797 324.722 C 84.392 339.321,85.300 341.852,90.943 341.852 C 96.174 341.852,96.852 340.642,96.852 331.296 L 96.852 324.259 95.185 324.259 L 93.519 324.259 93.519 330.386 C 93.519 337.489,93.197 338.519,90.975 338.519 C 88.601 338.519,88.350 337.797,88.205 330.559 L 88.076 324.159 90.857 324.018 C 95.594 323.779,96.474 322.395,96.474 315.185 C 96.474 309.561,96.092 308.320,93.964 307.022 C 92.497 306.128,88.482 306.044,86.949 306.876 M99.491 306.865 C 99.352 307.227,99.260 311.206,99.288 315.706 C 99.315 320.207,99.225 324.165,99.087 324.502 C 98.298 326.435,98.982 327.587,100.988 327.703 L 102.902 327.814 102.859 334.741 L 102.816 341.667 104.464 341.667 L 106.111 341.667 106.212 334.742 L 106.312 327.818 108.064 327.705 L 109.815 327.593 109.928 325.833 L 110.041 324.074 108.446 324.031 C 107.569 324.007,107.178 323.905,107.577 323.804 C 111.217 322.879,112.398 317.401,109.352 315.574 C 108.735 315.204,108.735 315.167,109.352 314.796 C 111.831 313.309,111.504 308.582,108.825 307.183 C 106.934 306.195,99.840 305.953,99.491 306.865 M114.422 306.553 C 114.357 307.421,114.195 314.528,114.138 318.981 C 114.077 323.806,114.035 324.074,113.333 324.074 C 112.926 324.074,112.587 324.116,112.580 324.167 C 112.573 324.218,112.470 328.228,112.352 333.078 L 112.137 341.896 113.939 341.781 L 115.741 341.667 115.741 332.963 L 115.741 324.259 116.667 324.071 L 117.593 323.882 117.593 315.182 L 117.593 306.481 116.019 306.368 C 115.153 306.305,114.434 306.388,114.422 306.553 M135.880 306.740 C 135.804 307.005,135.741 311.013,135.741 315.647 L 135.741 324.072 134.907 324.073 C 134.449 324.074,134.070 324.116,134.064 324.167 C 134.059 324.218,133.957 328.227,133.838 333.078 L 133.621 341.896 135.422 341.781 L 137.222 341.667 137.222 336.944 C 137.222 334.347,137.306 332.223,137.407 332.224 C 137.509 332.226,138.846 334.351,140.377 336.947 L 143.161 341.667 144.685 341.778 L 146.208 341.890 146.480 333.386 C 146.778 324.058,146.780 324.074,145.047 324.074 C 143.853 324.074,143.843 324.058,143.866 322.315 L 143.889 320.556 141.574 320.445 C 139.337 320.339,139.259 320.302,139.246 319.334 C 139.239 318.784,139.198 315.667,139.154 312.407 L 139.074 306.481 137.547 306.370 C 136.533 306.296,135.973 306.420,135.880 306.740 M128.490 310.210 C 129.202 310.886,129.659 314.456,129.063 314.685 C 128.820 314.778,127.639 314.804,126.440 314.742 L 124.259 314.630 124.358 313.148 C 124.412 312.333,124.542 311.284,124.647 310.817 C 124.980 309.332,127.197 308.982,128.490 310.210 M77.325 310.206 C 79.324 311.606,78.055 313.704,75.210 313.704 C 73.596 313.704,73.630 313.764,73.630 310.926 C 73.630 310.417,73.646 309.917,73.667 309.815 C 73.754 309.378,76.573 309.680,77.325 310.206 M92.072 310.409 C 92.938 311.366,93.282 316.733,92.619 318.946 C 91.987 321.058,89.196 321.495,88.255 319.630 C 87.664 318.457,87.626 312.091,88.204 310.994 C 89.040 309.404,90.907 309.122,92.072 310.409 M106.584 310.206 C 108.569 311.596,107.316 313.704,104.505 313.704 L 103.034 313.704 102.906 311.821 C 102.836 310.785,102.847 309.869,102.932 309.784 C 103.320 309.396,105.845 309.688,106.584 310.206 M106.963 317.481 C 108.137 318.656,107.312 320.109,105.247 320.500 C 103.118 320.904,102.570 320.178,102.917 317.407 C 102.982 316.883,106.427 316.946,106.963 317.481 M74.399 324.518 C 74.322 324.783,74.259 328.750,74.259 333.333 L 74.259 341.667 78.231 341.772 C 82.166 341.876,82.204 341.869,82.428 340.976 C 82.977 338.787,82.602 338.343,80.101 338.223 L 77.794 338.113 77.693 331.186 L 77.593 324.259 76.065 324.148 C 75.051 324.074,74.491 324.198,74.399 324.518 M143.099 325.278 C 143.072 325.940,143.031 328.142,143.007 330.172 C 142.970 333.279,142.885 333.777,142.467 333.320 C 141.927 332.729,137.037 324.574,137.037 324.264 C 137.037 324.160,138.412 324.074,140.093 324.074 L 143.148 324.074 143.099 325.278 M66.887 328.187 C 67.753 329.143,68.097 334.511,67.434 336.724 C 66.801 338.835,64.011 339.273,63.070 337.407 C 62.479 336.235,62.441 329.869,63.018 328.772 C 63.855 327.182,65.722 326.900,66.887 328.187 M126.517 328.187 C 127.383 329.143,127.727 334.511,127.064 336.724 C 126.431 338.835,123.640 339.273,122.700 337.407 C 122.109 336.235,122.070 329.869,122.648 328.772 C 123.485 327.182,125.351 326.900,126.517 328.187 " stroke="none" fill="#f7f8f7" fill-rule="evenodd"></path><path id="path1" d="M0.000 200.000 L 0.000 400.000 200.000 400.000 L 400.000 400.000 400.000 200.000 L 400.000 0.000 200.000 0.000 L 0.000 0.000 0.000 200.000 M128.737 42.394 C 132.384 43.482,135.517 47.709,136.298 52.593 C 136.988 56.914,136.816 84.076,136.093 84.803 C 135.693 85.205,134.672 85.341,132.162 85.326 C 127.309 85.296,127.359 85.381,127.626 77.559 L 127.834 71.481 121.695 71.481 L 115.556 71.481 115.556 77.383 C 115.556 85.096,115.583 85.031,112.195 85.273 C 106.285 85.696,106.600 86.563,106.826 70.507 C 107.119 49.671,108.259 45.704,114.815 42.710 C 117.525 41.472,125.073 41.301,128.737 42.394 M50.627 42.753 C 54.587 43.981,58.082 48.422,58.945 53.323 C 59.602 57.054,57.966 57.979,52.259 57.102 C 50.671 56.858,50.613 56.800,49.967 54.815 C 48.419 50.060,42.316 48.712,39.734 52.555 C 37.491 55.894,39.021 57.526,47.094 60.407 C 52.703 62.408,54.241 63.204,55.772 64.898 C 62.185 71.996,57.939 83.809,48.333 85.591 C 38.339 87.444,31.178 82.882,29.874 73.830 C 29.335 70.089,29.599 69.841,34.118 69.841 C 37.831 69.841,38.889 70.427,38.889 72.485 C 38.889 78.036,48.086 79.372,49.680 74.053 C 50.500 71.315,48.918 69.768,43.291 67.803 C 33.614 64.424,30.422 61.386,30.333 55.473 C 30.177 45.148,39.503 39.304,50.627 42.753 M74.012 43.082 C 74.414 43.402,74.482 47.295,74.382 64.313 L 74.259 85.152 75.741 85.399 C 80.792 86.242,84.044 90.157,85.000 96.546 C 85.711 101.300,85.591 127.520,84.855 128.256 C 84.202 128.909,77.709 128.859,76.909 128.195 C 76.382 127.758,76.296 126.786,76.296 121.251 L 76.296 114.815 70.415 114.815 L 64.534 114.815 64.279 121.019 C 63.948 129.075,64.278 128.383,60.621 128.688 C 54.821 129.171,55.225 130.445,55.584 112.778 C 56.000 92.281,57.387 87.920,64.126 85.924 L 65.741 85.445 65.834 64.500 C 65.893 51.114,66.061 43.420,66.299 43.183 C 67.156 42.326,72.965 42.249,74.012 43.082 M90.290 43.213 C 90.709 43.772,90.754 46.710,90.551 60.268 L 90.306 76.647 95.986 76.749 L 101.667 76.852 101.773 80.276 C 101.938 85.578,102.746 85.185,91.675 85.185 C 84.551 85.185,82.195 85.073,81.973 84.722 C 81.570 84.087,81.818 43.601,82.227 43.185 C 83.324 42.071,89.451 42.092,90.290 43.213 M151.364 43.020 C 151.633 43.242,151.852 43.596,151.852 43.807 C 151.852 44.017,152.634 45.372,153.590 46.817 C 156.146 50.681,156.777 51.728,158.523 55.000 C 159.393 56.630,160.811 59.046,161.676 60.370 C 162.540 61.694,163.763 63.694,164.393 64.815 L 165.539 66.852 165.637 58.519 C 165.691 53.935,165.736 48.733,165.738 46.958 C 165.742 42.714,165.901 42.556,170.157 42.556 C 172.253 42.556,173.601 42.724,173.972 43.032 C 174.665 43.607,174.328 84.234,173.623 85.093 C 173.020 85.826,167.250 85.716,166.490 84.956 C 166.161 84.626,164.607 82.210,163.038 79.587 C 161.469 76.964,159.736 74.109,159.188 73.242 C 158.639 72.376,157.622 70.667,156.928 69.444 C 156.233 68.222,154.891 65.893,153.944 64.268 L 152.222 61.314 152.183 69.639 C 152.130 80.667,151.949 84.437,151.441 85.049 C 150.932 85.662,145.755 85.754,144.237 85.177 L 143.241 84.798 143.452 64.221 C 143.600 49.762,143.788 43.493,144.081 43.139 C 144.855 42.207,150.278 42.118,151.364 43.020 M199.152 42.644 C 207.924 43.925,210.602 48.111,210.965 61.111 C 211.559 82.342,208.438 85.525,187.296 85.247 L 182.555 85.185 181.966 83.796 C 181.368 82.385,181.488 45.083,182.096 43.500 C 182.595 42.199,192.648 41.694,199.152 42.644 M242.869 43.039 C 243.453 43.523,243.286 50.195,242.675 50.807 C 242.430 51.051,239.394 51.170,234.294 51.133 L 226.296 51.076 226.296 54.797 L 226.296 58.519 231.759 58.567 C 234.764 58.594,238.472 58.719,240.000 58.845 L 242.778 59.074 242.778 62.555 C 242.778 67.513,243.345 67.200,234.104 67.342 L 226.296 67.461 226.296 72.064 L 226.296 76.667 234.399 76.667 C 241.085 76.667,242.581 76.762,242.955 77.212 C 243.529 77.904,243.335 84.221,242.721 84.835 C 242.267 85.289,219.064 85.371,217.896 84.923 C 217.160 84.641,217.375 43.959,218.116 43.217 C 219.016 42.317,241.801 42.153,242.869 43.039 M268.384 42.906 C 281.061 44.986,282.600 61.413,270.656 67.151 L 268.905 67.992 270.728 71.682 C 273.214 76.714,274.320 77.778,277.061 77.778 C 281.301 77.778,280.448 84.739,276.129 85.387 C 270.821 86.183,267.011 83.531,264.296 77.153 C 261.084 69.604,260.291 68.148,259.391 68.148 L 258.519 68.148 258.519 76.085 C 258.519 85.386,258.693 84.968,254.670 85.308 C 251.788 85.552,250.004 85.190,249.994 84.361 C 249.853 72.627,249.963 45.044,250.155 44.189 C 250.341 43.360,250.714 42.910,251.410 42.678 C 252.694 42.250,265.430 42.421,268.384 42.906 M118.901 50.649 C 116.905 51.656,116.328 53.049,115.881 57.948 C 115.663 60.328,115.545 62.335,115.618 62.408 C 115.691 62.481,118.498 62.594,121.857 62.659 L 127.963 62.778 127.852 59.815 C 127.614 53.497,126.491 51.045,123.519 50.360 C 121.353 49.860,120.340 49.923,118.901 50.649 M191.263 50.666 C 190.547 50.768,189.720 68.366,190.118 75.000 L 190.185 76.111 194.531 76.111 L 198.877 76.111 200.033 74.954 C 202.213 72.772,202.849 57.163,200.914 53.332 C 199.880 51.284,195.469 50.065,191.263 50.666 M258.519 55.416 L 258.519 60.091 262.870 59.912 C 268.687 59.672,269.630 59.086,269.630 55.710 C 269.630 52.231,267.357 50.741,262.049 50.741 L 258.519 50.741 258.519 55.416 M38.856 86.442 C 39.344 87.030,39.468 106.754,39.036 115.080 L 38.782 119.980 44.484 120.083 L 50.185 120.185 50.459 122.222 C 50.754 124.415,50.527 127.296,49.989 128.166 C 49.589 128.813,32.839 129.105,31.229 128.493 L 30.287 128.135 30.448 107.537 C 30.601 87.948,30.643 86.914,31.301 86.432 C 32.272 85.722,38.265 85.730,38.856 86.442 M110.556 86.292 C 121.359 88.052,124.689 102.060,115.458 106.914 C 114.892 107.212,115.028 107.415,116.482 108.440 C 123.048 113.068,121.928 123.353,114.435 127.227 C 110.959 129.024,94.543 129.728,92.963 128.148 C 91.763 126.949,91.596 87.972,92.785 86.659 C 93.543 85.822,106.080 85.563,110.556 86.292 M66.857 94.507 C 65.328 95.709,64.780 97.465,64.545 101.909 L 64.333 105.926 68.782 105.926 C 71.228 105.926,74.003 106.032,74.948 106.161 L 76.667 106.397 76.667 103.990 C 76.667 98.905,75.464 95.207,73.508 94.279 C 71.650 93.397,68.113 93.518,66.857 94.507 M100.741 98.663 L 100.741 103.333 104.574 103.333 C 110.222 103.333,111.852 102.422,111.852 99.263 C 111.852 95.723,109.919 94.334,104.722 94.141 L 100.741 93.992 100.741 98.663 M100.741 115.516 C 100.741 120.191,100.578 120.001,104.567 119.998 C 109.462 119.994,111.852 118.544,111.852 115.577 C 111.852 112.558,109.841 111.487,104.167 111.484 L 100.741 111.481 100.741 115.516 M182.580 160.716 C 183.215 161.905,183.036 162.564,181.296 165.429 C 179.252 168.796,179.231 168.463,181.594 170.055 L 183.558 171.378 186.595 169.519 C 189.308 167.858,189.731 167.705,190.567 168.086 C 192.698 169.057,192.212 170.917,189.359 172.710 C 188.184 173.449,186.997 174.203,186.721 174.387 C 186.314 174.658,186.379 174.997,187.069 176.196 L 187.918 177.671 189.908 177.151 C 192.152 176.565,193.151 176.744,193.736 177.837 C 194.553 179.365,193.871 180.321,191.489 180.983 L 189.289 181.595 189.507 183.297 C 189.778 185.410,189.725 185.362,192.367 185.872 C 194.984 186.376,195.556 186.791,195.556 188.185 C 195.556 189.786,194.244 190.498,192.176 190.021 C 189.790 189.471,189.753 189.488,189.303 191.275 C 189.075 192.180,188.889 193.000,188.889 193.097 C 188.889 193.194,189.514 193.647,190.278 194.104 C 193.307 195.916,193.994 197.175,192.720 198.582 C 191.886 199.504,191.237 199.430,189.090 198.166 L 187.254 197.085 186.399 198.591 L 185.544 200.096 187.216 201.884 C 190.617 205.519,187.851 208.339,184.301 204.856 L 182.739 203.323 181.924 204.426 L 181.108 205.530 181.917 207.194 C 182.587 208.574,182.653 209.018,182.301 209.789 C 181.463 211.629,178.971 211.267,178.318 209.210 C 178.043 208.345,177.709 208.341,176.662 209.189 C 175.866 209.833,175.857 209.904,176.436 211.022 C 178.004 214.055,175.562 216.089,173.282 213.649 C 172.290 212.587,172.114 212.526,171.301 212.961 L 170.409 213.438 171.104 214.802 C 171.917 216.394,171.527 217.666,170.063 218.201 C 169.185 218.522,167.410 217.231,166.988 215.964 C 166.649 214.948,165.105 216.329,165.376 217.407 C 166.072 220.181,166.029 220.656,165.022 221.316 C 163.707 222.178,162.446 221.597,161.810 219.837 C 161.313 218.465,161.180 218.373,160.225 218.740 C 159.711 218.937,159.708 219.076,160.194 220.018 C 160.902 221.387,160.885 222.190,160.128 223.026 C 158.969 224.307,157.510 223.869,156.524 221.944 C 155.818 220.567,155.900 220.600,154.622 221.182 C 153.893 221.514,153.707 221.811,153.869 222.386 C 154.552 224.810,154.555 226.411,153.876 226.907 C 152.224 228.115,150.822 227.246,150.049 224.537 C 149.802 223.671,149.534 222.963,149.454 222.963 C 147.980 222.963,147.322 223.798,147.506 225.435 C 147.951 229.378,143.887 230.148,143.359 226.221 L 143.148 224.650 141.049 224.565 C 139.049 224.484,138.903 224.541,137.974 225.759 C 135.979 228.374,132.652 226.160,134.592 223.508 C 135.197 222.680,132.914 219.993,131.618 220.008 C 128.912 220.040,126.107 222.651,126.404 224.861 C 126.923 228.734,128.434 229.420,136.481 229.435 C 145.389 229.452,147.032 230.444,146.570 235.530 C 146.295 238.568,145.644 239.788,144.225 239.926 C 142.453 240.100,142.015 239.289,142.453 236.642 C 142.943 233.681,142.989 233.704,136.524 233.704 C 127.578 233.704,124.211 232.164,122.816 227.433 C 121.320 222.361,123.089 218.888,128.231 216.799 C 130.838 215.740,131.214 214.444,128.915 214.444 C 127.901 214.444,127.165 214.202,126.667 213.704 C 125.057 212.094,126.214 210.370,128.905 210.370 C 130.490 210.370,131.995 208.421,131.042 207.602 C 130.978 207.547,130.387 207.227,129.728 206.892 C 126.265 205.131,128.769 202.022,132.421 203.548 C 134.643 204.476,136.901 203.379,136.071 201.775 C 134.690 199.104,137.923 197.774,139.876 200.209 C 140.857 201.432,141.015 201.500,142.007 201.123 L 143.077 200.716 142.094 199.689 C 139.572 197.057,142.410 194.759,145.139 197.224 L 146.576 198.523 147.481 197.317 C 149.010 195.280,149.012 195.297,147.040 194.192 C 143.185 192.030,144.602 188.372,148.520 190.371 C 149.382 190.811,150.226 191.033,150.395 190.863 C 150.961 190.296,151.447 186.136,150.980 185.863 C 147.760 183.981,147.046 183.014,147.904 181.704 C 148.638 180.585,150.120 180.421,151.400 181.318 C 152.184 181.867,152.243 181.844,152.603 180.855 C 152.812 180.283,153.169 179.348,153.396 178.778 C 153.775 177.826,153.698 177.640,152.460 176.506 C 150.936 175.110,150.761 174.054,151.871 172.944 C 152.722 172.093,153.768 172.229,155.000 173.353 C 155.724 174.014,155.769 173.996,156.999 172.530 L 158.257 171.031 157.462 169.395 C 156.506 167.428,156.471 166.755,157.280 165.862 C 158.474 164.542,159.774 165.091,161.296 167.557 C 161.632 168.100,161.869 168.074,163.805 167.280 C 166.472 166.186,166.296 166.438,165.895 164.288 C 165.468 162.003,166.125 160.741,167.741 160.741 C 169.085 160.741,169.535 161.297,169.849 163.352 C 170.239 165.896,170.489 166.166,172.670 166.394 C 173.748 166.507,174.861 166.656,175.144 166.726 C 175.455 166.802,176.334 165.739,177.367 164.038 C 179.968 159.753,181.531 158.757,182.580 160.716 M297.933 160.761 C 303.263 162.755,305.378 166.816,305.350 175.000 C 305.267 199.839,290.920 217.428,267.407 221.519 C 262.934 222.297,260.964 222.231,258.434 221.219 C 254.311 219.569,247.768 222.368,245.856 226.599 C 241.512 236.214,241.085 236.827,237.513 238.585 C 233.436 240.592,230.573 240.457,225.556 238.019 C 224.225 237.372,224.117 235.787,225.349 234.980 C 226.353 234.322,226.891 234.422,230.641 235.962 C 232.160 236.586,234.688 235.999,236.852 234.520 C 238.380 233.476,238.820 232.730,242.379 225.132 C 244.076 221.509,245.830 219.641,248.557 218.550 C 249.348 218.233,249.283 218.193,247.950 218.172 C 247.128 218.159,243.917 217.731,240.814 217.222 C 230.317 215.500,226.108 216.571,224.073 221.483 C 223.337 223.261,220.686 223.470,220.245 221.784 C 219.724 219.790,223.908 214.779,227.390 213.227 C 229.588 212.247,234.586 212.277,240.597 213.306 C 244.686 214.006,250.722 214.340,251.171 213.891 C 252.187 212.875,250.927 211.481,248.993 211.481 C 244.256 211.481,239.663 209.459,235.233 205.422 C 229.804 200.475,228.058 199.536,224.581 199.692 C 222.072 199.805,221.111 199.329,221.111 197.975 C 221.111 196.417,222.373 195.759,225.305 195.787 C 229.457 195.827,231.248 196.797,237.758 202.535 C 243.315 207.433,250.876 209.532,251.652 206.392 C 252.120 204.498,254.165 201.799,256.082 200.546 C 258.102 199.225,259.185 198.872,264.068 197.946 C 275.664 195.746,281.427 187.719,281.636 173.474 C 281.787 163.242,289.170 157.483,297.933 160.761 M138.796 164.682 C 141.144 166.147,139.547 168.159,136.074 168.115 C 132.286 168.066,130.228 169.219,129.044 172.053 C 128.150 174.191,125.471 174.416,124.964 172.397 C 123.748 167.550,134.120 161.765,138.796 164.682 M290.994 164.080 C 287.126 165.241,285.821 167.713,285.507 174.470 C 284.746 190.878,277.728 199.582,263.283 202.033 C 251.174 204.087,252.179 218.984,264.362 218.033 C 286.050 216.342,301.475 198.469,301.480 175.024 C 301.482 166.198,297.564 162.108,290.994 164.080 M165.741 170.825 C 160.625 172.648,155.185 181.547,155.185 188.091 C 155.185 196.313,149.102 203.492,139.806 206.239 C 129.913 209.162,133.960 222.257,144.119 220.198 C 161.930 216.589,182.176 202.448,184.988 191.651 C 188.249 179.132,176.897 166.848,165.741 170.825 M172.771 173.107 C 174.385 174.721,173.467 176.079,170.364 176.668 C 166.573 177.387,163.966 180.071,163.476 183.757 C 163.159 186.152,162.008 187.097,160.561 186.149 C 156.948 183.781,162.041 174.461,167.756 172.983 C 169.058 172.646,170.473 172.371,171.406 172.273 C 171.670 172.245,172.284 172.621,172.771 173.107 M68.527 173.867 C 81.777 175.631,91.316 180.598,94.823 187.559 L 95.926 189.748 95.922 199.967 C 95.919 209.930,95.897 210.231,95.045 212.037 C 85.965 231.279,34.366 231.523,24.961 212.368 L 23.889 210.185 23.889 200.000 L 23.889 189.815 24.961 187.632 C 29.916 177.540,49.542 171.339,68.527 173.867 M50.556 177.577 C 34.147 180.161,23.934 188.749,28.359 196.241 L 28.997 197.320 30.658 196.052 C 43.801 186.020,73.257 185.602,87.938 195.239 C 91.221 197.395,91.440 197.348,92.260 194.304 C 95.132 183.640,71.710 174.246,50.556 177.577 M175.200 179.267 C 180.018 181.725,179.914 189.103,175.027 191.468 C 168.369 194.691,161.902 186.409,166.758 180.879 C 168.891 178.450,172.316 177.795,175.200 179.267 M170.235 183.360 C 169.540 183.907,169.259 184.473,169.259 185.327 C 169.259 187.905,172.079 189.066,173.906 187.239 C 176.388 184.757,173.004 181.182,170.235 183.360 M131.843 184.006 C 134.946 186.303,135.447 191.481,132.566 191.481 C 131.489 191.481,130.370 190.150,130.370 188.870 C 130.370 187.914,130.157 187.651,128.981 187.162 C 127.445 186.522,127.051 186.089,127.043 185.029 C 127.026 182.986,129.697 182.417,131.843 184.006 M119.592 189.852 C 120.300 190.752,120.313 190.901,119.792 192.150 C 119.104 193.796,119.375 195.188,120.609 196.342 C 121.981 197.625,122.274 198.333,121.873 199.389 C 120.751 202.341,116.317 199.351,115.543 195.119 C 114.770 190.889,117.557 187.264,119.592 189.852 M50.592 192.412 C 43.052 193.640,36.120 196.266,32.074 199.427 C 31.106 200.184,32.008 200.921,36.852 203.333 C 51.481 210.617,77.052 209.395,87.222 200.925 L 88.333 200.000 87.222 199.075 C 80.617 193.574,63.064 190.381,50.592 192.412 M65.872 194.114 C 69.099 195.204,70.453 197.778,67.798 197.778 C 67.452 197.778,66.514 198.273,65.714 198.879 C 63.468 200.578,62.404 200.426,58.618 197.864 C 53.727 194.554,59.040 191.807,65.872 194.114 M60.238 195.460 L 58.810 195.605 60.250 196.664 C 62.361 198.216,63.310 198.330,64.597 197.187 C 65.800 196.118,65.479 195.572,63.641 195.561 C 63.098 195.558,62.431 195.501,62.160 195.435 C 61.889 195.369,61.024 195.380,60.238 195.460 M53.342 197.230 C 53.704 197.557,54.890 198.060,55.979 198.347 C 60.617 199.571,59.632 204.211,54.630 204.700 C 53.407 204.819,51.957 205.144,51.407 205.422 C 48.072 207.104,43.793 203.707,45.291 200.565 C 46.881 197.231,51.314 195.394,53.342 197.230 M49.029 199.242 C 46.752 200.916,46.429 201.957,47.823 203.129 C 49.086 204.192,49.356 204.247,50.450 203.661 C 50.875 203.434,52.316 203.112,53.653 202.946 C 57.448 202.476,58.138 201.008,54.996 200.092 C 53.997 199.801,52.775 199.244,52.281 198.855 C 51.089 197.918,50.779 197.955,49.029 199.242 M75.237 199.978 C 76.821 201.279,75.719 202.407,70.055 205.278 C 63.036 208.835,59.637 208.344,62.778 204.226 C 63.287 203.559,63.704 202.755,63.704 202.441 C 63.704 200.304,73.173 198.282,75.237 199.978 M27.416 205.113 C 27.427 210.935,28.864 213.466,33.997 216.707 C 46.455 224.575,68.956 225.223,83.207 218.125 C 90.293 214.595,92.294 211.814,92.518 205.185 L 92.662 200.926 91.238 202.278 C 77.962 214.891,42.172 214.888,28.611 202.273 L 27.407 201.153 27.416 205.113 M69.815 201.510 C 66.415 202.256,65.556 202.617,65.556 203.298 C 65.556 203.670,65.202 204.424,64.769 204.974 L 63.982 205.974 65.232 205.434 C 73.516 201.854,75.330 200.301,69.815 201.510 M193.085 211.987 C 195.514 213.002,197.107 216.078,195.852 217.333 C 195.047 218.138,193.526 217.834,192.384 216.640 C 191.396 215.606,191.150 215.524,189.689 215.741 C 187.855 216.015,186.667 215.287,186.667 213.889 C 186.667 211.856,190.239 210.798,193.085 211.987 M183.767 223.206 C 184.578 223.939,184.622 225.104,183.877 226.089 C 182.940 227.328,183.198 229.506,184.497 231.314 C 186.797 234.516,183.581 236.335,180.984 233.301 C 177.393 229.105,179.967 219.767,183.767 223.206 M162.963 228.889 C 163.370 229.296,163.704 229.790,163.704 229.986 C 163.704 230.870,165.374 231.852,166.876 231.852 C 168.631 231.852,169.352 232.464,169.352 233.954 C 169.352 236.838,164.035 236.613,161.174 233.607 C 158.413 230.705,160.163 226.089,162.963 228.889 M63.308 306.289 C 67.167 307.396,68.839 312.593,65.336 312.593 C 63.835 312.593,63.673 312.496,63.178 311.309 C 62.525 309.749,61.162 309.269,59.840 310.135 C 58.282 311.156,58.034 318.442,59.503 320.065 C 60.619 321.298,63.333 320.459,63.333 318.881 C 63.333 317.925,64.343 317.475,66.019 317.685 C 66.990 317.806,67.407 318.042,67.405 318.466 C 67.401 319.757,66.622 321.792,65.787 322.693 L 64.914 323.635 66.609 323.889 C 70.508 324.473,71.724 327.214,71.422 334.732 C 71.165 341.123,67.352 343.980,62.186 341.650 C 58.649 340.055,57.577 329.163,60.603 325.566 L 61.547 324.444 60.389 324.444 C 56.509 324.444,54.999 321.905,55.002 315.382 C 55.005 307.448,57.568 304.643,63.308 306.289 M94.029 306.948 C 96.310 308.651,96.481 309.221,96.481 315.119 C 96.481 322.612,95.222 324.444,90.071 324.444 L 88.305 324.444 88.406 330.612 C 88.519 337.480,88.816 338.523,90.657 338.513 C 93.016 338.500,93.333 337.519,93.333 330.253 L 93.333 324.160 94.259 323.983 C 94.769 323.886,95.602 323.886,96.111 323.983 L 97.037 324.160 97.037 331.284 L 97.037 338.407 95.950 339.908 C 93.518 343.265,87.326 342.968,85.583 339.411 C 84.958 338.137,84.375 331.418,84.524 327.222 L 84.630 324.259 85.926 324.045 C 86.957 323.874,87.086 323.770,86.558 323.536 C 83.603 322.227,83.238 310.106,86.073 307.443 C 87.819 305.803,92.136 305.535,94.029 306.948 M130.345 306.575 C 132.819 307.835,133.056 309.000,132.991 319.537 L 132.963 324.074 131.111 324.074 L 129.259 324.074 129.259 321.296 L 129.259 318.519 126.852 318.519 C 124.569 318.519,124.444 318.564,124.444 319.393 C 124.444 319.874,124.342 321.016,124.216 321.932 L 123.988 323.597 125.948 323.857 C 130.138 324.413,131.362 327.019,131.052 334.732 C 130.793 341.177,126.657 344.122,121.535 341.509 C 117.920 339.664,117.357 327.904,120.748 325.051 C 121.739 324.217,121.763 324.137,121.082 323.959 C 120.271 323.747,120.295 312.659,121.113 309.623 C 121.991 306.360,126.805 304.771,130.345 306.575 M34.918 308.426 C 35.616 309.597,36.567 311.362,37.032 312.349 L 37.877 314.142 40.142 310.223 L 42.407 306.304 43.981 306.300 C 44.847 306.298,45.561 306.338,45.568 306.389 C 45.574 306.440,45.674 310.398,45.790 315.185 C 45.938 321.294,46.138 324.055,46.460 324.444 C 46.713 324.750,47.545 327.167,48.308 329.815 C 49.072 332.463,49.819 334.759,49.968 334.917 C 50.118 335.074,50.956 332.908,51.830 330.102 C 52.704 327.296,53.587 324.792,53.792 324.537 C 54.316 323.886,57.407 323.922,57.407 324.579 C 57.407 325.359,53.333 337.961,52.033 341.204 C 51.836 341.694,51.343 341.852,50.005 341.852 L 48.238 341.852 45.809 334.352 C 44.473 330.227,43.263 326.352,43.120 325.741 C 42.978 325.130,42.723 324.452,42.553 324.236 C 42.384 324.019,42.199 321.769,42.142 319.236 L 42.037 314.630 40.539 317.222 C 38.512 320.729,37.821 320.741,35.763 317.306 L 34.259 314.798 34.074 319.343 L 33.889 323.889 37.500 323.994 L 41.111 324.100 41.111 325.939 L 41.111 327.778 37.593 327.778 L 34.074 327.778 34.074 329.259 L 34.074 330.741 37.386 330.741 C 41.080 330.741,41.280 330.867,40.924 332.977 L 40.676 334.444 37.375 334.444 L 34.074 334.444 34.074 336.282 L 34.074 338.120 37.500 338.227 L 40.926 338.333 41.039 340.093 L 41.152 341.852 35.765 341.852 L 30.378 341.852 30.378 324.317 C 30.378 305.229,30.267 306.296,32.257 306.296 C 33.559 306.296,33.733 306.436,34.918 308.426 M52.222 315.163 C 52.222 324.841,52.307 324.485,50.076 324.185 L 48.519 323.977 48.519 315.383 C 48.519 305.825,48.410 306.296,50.617 306.296 L 52.222 306.296 52.222 315.163 M79.024 306.807 C 82.658 308.325,82.987 314.394,79.531 316.152 C 78.872 316.487,78.280 316.806,78.216 316.862 C 77.706 317.302,80.111 320.705,81.005 320.808 C 82.289 320.957,83.056 322.672,82.203 323.487 C 80.105 325.491,77.490 324.099,75.620 319.981 C 73.924 316.247,73.755 316.288,73.625 320.463 L 73.519 323.889 71.759 324.002 L 70.000 324.115 70.000 315.452 C 70.000 310.688,70.111 306.679,70.247 306.543 C 70.720 306.070,77.766 306.281,79.024 306.807 M108.715 307.043 C 111.305 308.296,112.027 311.817,110.152 314.046 L 109.193 315.185 110.152 316.325 C 112.031 318.557,110.720 323.551,108.202 323.752 C 107.867 323.779,108.176 323.904,108.889 324.030 C 110.144 324.252,110.185 324.312,110.185 325.926 L 110.185 327.593 108.333 327.778 L 106.481 327.963 106.381 334.907 L 106.280 341.852 104.436 341.852 L 102.593 341.852 102.593 334.815 L 102.593 327.778 100.741 327.778 L 98.889 327.778 98.889 325.926 C 98.889 324.907,99.014 324.074,99.167 324.074 C 99.319 324.075,99.397 320.294,99.338 315.674 C 99.279 311.053,99.316 307.053,99.419 306.785 C 99.747 305.929,106.820 306.125,108.715 307.043 M117.692 315.278 L 117.593 324.259 116.759 324.230 L 115.926 324.200 115.926 333.004 C 115.926 342.618,116.011 342.263,113.773 341.962 L 112.209 341.753 112.308 333.006 L 112.407 324.259 113.241 324.141 L 114.074 324.023 114.074 315.406 C 114.074 305.820,113.964 306.296,116.179 306.296 L 117.791 306.296 117.692 315.278 M139.259 313.333 L 139.259 320.370 141.702 320.370 L 144.146 320.370 144.017 322.222 L 143.889 324.075 145.278 324.074 L 146.667 324.074 146.667 332.923 C 146.667 342.587,146.754 342.235,144.419 341.948 C 143.169 341.795,142.947 341.537,140.345 337.201 L 137.593 332.615 137.407 337.326 C 137.243 341.511,137.150 342.034,136.574 342.006 C 136.218 341.989,135.423 341.948,134.808 341.914 L 133.690 341.852 133.790 333.056 L 133.889 324.259 134.722 324.141 L 135.556 324.023 135.556 315.406 C 135.556 305.823,135.446 306.296,137.654 306.296 L 139.259 306.296 139.259 313.333 M74.167 309.875 C 73.894 309.985,73.704 310.735,73.704 311.698 L 73.704 313.333 75.734 313.333 C 77.569 313.333,77.785 313.248,77.987 312.442 C 78.299 311.200,77.568 310.000,76.499 310.000 C 76.013 310.000,75.394 309.930,75.123 309.844 C 74.852 309.758,74.421 309.772,74.167 309.875 M88.837 310.338 C 87.624 311.320,87.495 318.664,88.669 319.961 C 90.483 321.966,92.513 320.461,92.814 316.888 C 93.307 311.050,91.544 308.146,88.837 310.338 M103.426 309.875 C 103.154 309.985,102.963 310.735,102.963 311.698 L 102.963 313.333 104.993 313.333 C 106.828 313.333,107.044 313.248,107.247 312.442 C 107.558 311.200,106.827 310.000,105.758 310.000 C 105.273 310.000,104.653 309.930,104.382 309.844 C 104.111 309.758,103.681 309.772,103.426 309.875 M125.021 310.453 C 124.704 310.906,124.444 311.989,124.444 312.860 L 124.444 314.444 126.266 314.444 C 127.268 314.444,128.377 314.556,128.732 314.692 C 129.653 315.045,129.236 310.799,128.281 310.101 C 127.259 309.354,125.671 309.525,125.021 310.453 M102.963 318.704 L 102.963 320.370 104.572 320.370 C 105.661 320.370,106.380 320.151,106.794 319.693 C 108.155 318.190,107.145 317.037,104.469 317.037 L 102.963 317.037 102.963 318.704 M77.778 331.111 L 77.778 338.148 80.205 338.148 L 82.633 338.148 82.520 339.907 L 82.407 341.667 78.241 341.771 L 74.074 341.876 74.074 333.222 C 74.074 323.597,73.965 324.074,76.173 324.074 L 77.778 324.074 77.778 331.111 M137.952 325.648 C 138.478 326.514,139.696 328.593,140.658 330.267 C 142.918 334.202,142.963 334.172,142.963 328.704 L 142.963 324.074 139.979 324.074 L 136.995 324.074 137.952 325.648 M63.652 328.115 C 62.439 329.098,62.310 336.442,63.483 337.739 C 65.297 339.743,67.328 338.238,67.629 334.666 C 68.122 328.828,66.358 325.924,63.652 328.115 M123.282 328.115 C 122.068 329.098,121.939 336.442,123.113 337.739 C 124.927 339.743,126.958 338.238,127.259 334.666 C 127.751 328.828,125.988 325.924,123.282 328.115 " stroke="none" fill="#1c2424" fill-rule="evenodd"></path><path id="path2" d="M187.130 42.478 C 187.486 42.571,188.069 42.571,188.426 42.478 C 188.782 42.384,188.491 42.308,187.778 42.308 C 187.065 42.308,186.773 42.384,187.130 42.478 M90.456 45.185 C 90.456 45.898,90.533 46.190,90.626 45.833 C 90.719 45.477,90.719 44.894,90.626 44.537 C 90.533 44.181,90.456 44.472,90.456 45.185 M260.463 50.626 C 260.819 50.719,261.403 50.719,261.759 50.626 C 262.116 50.533,261.824 50.456,261.111 50.456 C 260.398 50.456,260.106 50.533,260.463 50.626 M165.649 53.148 C 165.653 53.963,165.729 54.253,165.818 53.792 C 165.906 53.331,165.903 52.665,165.810 52.310 C 165.717 51.956,165.645 52.333,165.649 53.148 M201.970 60.000 C 201.970 61.324,202.038 61.866,202.120 61.204 C 202.202 60.542,202.202 59.458,202.120 58.796 C 202.038 58.134,201.970 58.676,201.970 60.000 M228.998 58.794 C 230.586 58.864,233.086 58.863,234.554 58.793 C 236.022 58.723,234.722 58.666,231.667 58.667 C 228.611 58.667,227.410 58.725,228.998 58.794 M65.706 67.037 C 65.706 70.398,65.762 71.773,65.831 70.093 C 65.900 68.412,65.900 65.662,65.831 63.981 C 65.762 62.301,65.706 63.676,65.706 67.037 M190.101 62.593 C 190.101 63.509,190.173 63.884,190.261 63.426 C 190.350 62.968,190.350 62.218,190.261 61.759 C 190.173 61.301,190.101 61.676,190.101 62.593 M122.139 62.864 C 123.011 62.942,124.344 62.941,125.102 62.862 C 125.861 62.782,125.148 62.718,123.519 62.720 C 121.889 62.721,121.268 62.786,122.139 62.864 M217.562 69.815 C 217.562 73.685,217.617 75.218,217.684 73.222 C 217.750 71.225,217.750 68.058,217.683 66.184 C 217.616 64.311,217.561 65.944,217.562 69.815 M74.230 72.037 C 74.229 76.111,74.283 77.828,74.350 75.853 C 74.416 73.878,74.417 70.544,74.351 68.446 C 74.284 66.347,74.230 67.963,74.230 72.037 M226.087 67.522 C 225.985 67.788,225.954 69.996,226.019 72.429 L 226.137 76.852 226.217 72.147 L 226.296 67.441 228.796 67.312 L 231.296 67.182 228.785 67.110 C 227.003 67.058,226.219 67.178,226.087 67.522 M106.785 69.630 C 106.785 70.954,106.852 71.495,106.935 70.833 C 107.017 70.171,107.017 69.088,106.935 68.426 C 106.852 67.764,106.785 68.306,106.785 69.630 M201.938 68.519 C 201.938 69.231,202.014 69.523,202.107 69.167 C 202.200 68.810,202.200 68.227,202.107 67.870 C 202.014 67.514,201.938 67.806,201.938 68.519 M118.627 71.386 C 120.010 71.458,122.177 71.457,123.441 71.385 C 124.706 71.313,123.574 71.254,120.926 71.255 C 118.278 71.256,117.243 71.315,118.627 71.386 M143.476 77.407 C 143.476 79.954,143.535 80.995,143.608 79.722 C 143.680 78.449,143.680 76.366,143.608 75.093 C 143.535 73.819,143.476 74.861,143.476 77.407 M136.411 76.481 C 136.413 77.704,136.482 78.159,136.565 77.493 C 136.647 76.828,136.645 75.828,136.561 75.271 C 136.476 74.715,136.409 75.259,136.411 76.481 M258.249 77.037 C 258.249 77.954,258.321 78.329,258.410 77.870 C 258.498 77.412,258.498 76.662,258.410 76.204 C 258.321 75.745,258.249 76.120,258.249 77.037 M115.271 79.630 C 115.271 80.343,115.347 80.634,115.440 80.278 C 115.534 79.921,115.534 79.338,115.440 78.981 C 115.347 78.625,115.271 78.917,115.271 79.630 M81.587 82.037 C 81.590 83.056,81.662 83.428,81.747 82.865 C 81.832 82.302,81.830 81.469,81.742 81.013 C 81.654 80.558,81.585 81.019,81.587 82.037 M167.870 85.440 C 168.227 85.534,168.810 85.534,169.167 85.440 C 169.523 85.347,169.231 85.271,168.519 85.271 C 167.806 85.271,167.514 85.347,167.870 85.440 M30.485 100.556 C 30.487 101.778,30.556 102.233,30.639 101.567 C 30.721 100.902,30.720 99.902,30.635 99.345 C 30.551 98.789,30.483 99.333,30.485 100.556 M100.464 102.037 C 100.468 102.852,100.544 103.142,100.632 102.681 C 100.721 102.220,100.718 101.553,100.625 101.199 C 100.532 100.845,100.460 101.222,100.464 102.037 M55.641 104.444 C 55.641 105.157,55.718 105.449,55.811 105.093 C 55.904 104.736,55.904 104.153,55.811 103.796 C 55.718 103.440,55.641 103.731,55.641 104.444 M65.097 106.188 C 65.558 106.276,66.224 106.273,66.578 106.180 C 66.932 106.088,66.556 106.015,65.741 106.019 C 64.926 106.023,64.636 106.099,65.097 106.188 M38.990 108.148 C 38.990 109.065,39.062 109.440,39.150 108.981 C 39.239 108.523,39.239 107.773,39.150 107.315 C 39.062 106.856,38.990 107.231,38.990 108.148 M100.464 116.481 C 100.468 117.296,100.544 117.586,100.632 117.125 C 100.721 116.665,100.718 115.998,100.625 115.644 C 100.532 115.290,100.460 115.667,100.464 116.481 M85.279 125.370 C 85.283 126.185,85.359 126.475,85.447 126.014 C 85.536 125.553,85.532 124.887,85.440 124.533 C 85.347 124.179,85.274 124.556,85.279 125.370 M57.870 128.774 C 58.227 128.867,58.810 128.867,59.167 128.774 C 59.523 128.681,59.231 128.604,58.519 128.604 C 57.806 128.604,57.514 128.681,57.870 128.774 M80.468 128.784 C 81.031 128.869,81.864 128.867,82.320 128.779 C 82.775 128.691,82.315 128.622,81.296 128.624 C 80.278 128.627,79.905 128.699,80.468 128.784 M104.172 128.784 C 104.735 128.869,105.568 128.867,106.024 128.779 C 106.479 128.691,106.019 128.622,105.000 128.624 C 103.981 128.627,103.609 128.699,104.172 128.784 M185.661 186.852 C 185.664 187.870,185.736 188.243,185.821 187.680 C 185.906 187.117,185.904 186.284,185.816 185.828 C 185.728 185.373,185.659 185.833,185.661 186.852 M23.863 200.000 C 23.863 204.787,23.916 206.745,23.980 204.352 C 24.045 201.958,24.045 198.042,23.980 195.648 C 23.916 193.255,23.863 195.213,23.863 200.000 M59.167 191.743 C 59.625 191.831,60.375 191.831,60.833 191.743 C 61.292 191.655,60.917 191.582,60.000 191.582 C 59.083 191.582,58.708 191.655,59.167 191.743 M61.764 193.595 C 62.224 193.684,62.891 193.681,63.245 193.588 C 63.599 193.495,63.222 193.423,62.407 193.427 C 61.593 193.431,61.303 193.507,61.764 193.595 M186.481 201.481 C 187.277 202.296,188.011 202.963,188.113 202.963 C 188.215 202.963,187.647 202.296,186.852 201.481 C 186.056 200.667,185.322 200.000,185.220 200.000 C 185.118 200.000,185.686 200.667,186.481 201.481 M59.167 208.410 C 59.625 208.498,60.375 208.498,60.833 208.410 C 61.292 208.321,60.917 208.249,60.000 208.249 C 59.083 208.249,58.708 208.321,59.167 208.410 M128.611 214.329 C 128.968 214.423,129.551 214.423,129.907 214.329 C 130.264 214.236,129.972 214.160,129.259 214.160 C 128.546 214.160,128.255 214.236,128.611 214.329 M138.801 229.521 C 139.261 229.610,139.928 229.606,140.282 229.514 C 140.636 229.421,140.259 229.349,139.444 229.353 C 138.630 229.357,138.340 229.433,138.801 229.521 M137.500 233.589 C 137.856 233.682,138.440 233.682,138.796 233.589 C 139.153 233.495,138.861 233.419,138.148 233.419 C 137.435 233.419,137.144 233.495,137.500 233.589 M45.698 317.778 C 45.698 320.324,45.757 321.366,45.830 320.093 C 45.902 318.819,45.902 316.736,45.830 315.463 C 45.757 314.190,45.698 315.231,45.698 317.778 M120.471 317.407 C 120.471 318.324,120.543 318.699,120.632 318.241 C 120.720 317.782,120.720 317.032,120.632 316.574 C 120.543 316.116,120.471 316.491,120.471 317.407 M126.024 318.414 C 126.587 318.499,127.420 318.497,127.875 318.409 C 128.331 318.321,127.870 318.251,126.852 318.254 C 125.833 318.257,125.461 318.329,126.024 318.414 M124.167 319.815 C 124.172 320.630,124.247 320.919,124.336 320.459 C 124.425 319.998,124.421 319.331,124.329 318.977 C 124.236 318.623,124.163 319.000,124.167 319.815 M84.550 327.222 C 84.553 328.241,84.625 328.613,84.710 328.050 C 84.795 327.487,84.793 326.654,84.705 326.199 C 84.617 325.743,84.548 326.204,84.550 327.222 M88.242 328.333 C 88.246 329.148,88.322 329.438,88.410 328.977 C 88.499 328.516,88.495 327.850,88.403 327.496 C 88.310 327.142,88.237 327.519,88.242 328.333 M84.545 330.741 C 84.545 331.657,84.618 332.032,84.706 331.574 C 84.794 331.116,84.794 330.366,84.706 329.907 C 84.618 329.449,84.545 329.824,84.545 330.741 M102.704 332.593 C 102.704 333.713,102.773 334.171,102.858 333.611 C 102.943 333.051,102.943 332.134,102.858 331.574 C 102.773 331.014,102.704 331.472,102.704 332.593 M146.435 337.593 C 146.436 339.833,146.497 340.702,146.570 339.524 C 146.644 338.345,146.643 336.511,146.569 335.449 C 146.494 334.387,146.434 335.352,146.435 337.593 " stroke="none" fill="#6e7172" fill-rule="evenodd"></path><path id="path3" d="M184.907 42.478 C 185.264 42.571,185.847 42.571,186.204 42.478 C 186.560 42.384,186.269 42.308,185.556 42.308 C 184.843 42.308,184.551 42.384,184.907 42.478 M189.727 42.488 C 190.290 42.573,191.124 42.571,191.579 42.483 C 192.035 42.395,191.574 42.325,190.556 42.328 C 189.537 42.331,189.164 42.403,189.727 42.488 M238.241 42.858 C 238.801 42.943,239.718 42.943,240.278 42.858 C 240.838 42.773,240.380 42.704,239.259 42.704 C 238.139 42.704,237.681 42.773,238.241 42.858 M81.998 50.185 C 81.999 53.037,82.057 54.155,82.127 52.669 C 82.198 51.183,82.197 48.850,82.126 47.484 C 82.055 46.118,81.997 47.333,81.998 50.185 M66.075 51.481 C 66.075 54.639,66.132 55.931,66.201 54.352 C 66.271 52.773,66.271 50.190,66.201 48.611 C 66.132 47.032,66.075 48.324,66.075 51.481 M174.203 49.630 C 174.203 51.361,174.267 52.069,174.345 51.204 C 174.423 50.338,174.423 48.921,174.345 48.056 C 174.267 47.190,174.203 47.898,174.203 49.630 M90.510 53.333 C 90.510 55.676,90.571 56.634,90.644 55.463 C 90.718 54.292,90.718 52.375,90.644 51.204 C 90.571 50.032,90.510 50.991,90.510 53.333 M190.161 50.856 C 190.058 51.123,190.023 53.248,190.082 55.578 L 190.189 59.815 190.373 55.092 C 190.553 50.430,190.527 49.902,190.161 50.856 M262.870 50.632 C 263.329 50.720,264.079 50.720,264.537 50.632 C 264.995 50.543,264.620 50.471,263.704 50.471 C 262.787 50.471,262.412 50.543,262.870 50.632 M235.102 51.012 C 235.974 51.091,237.307 51.090,238.065 51.010 C 238.824 50.930,238.111 50.866,236.481 50.868 C 234.852 50.869,234.231 50.934,235.102 51.012 M258.249 52.593 C 258.249 53.509,258.321 53.884,258.410 53.426 C 258.498 52.968,258.498 52.218,258.410 51.759 C 258.321 51.301,258.249 51.676,258.249 52.593 M107.130 59.074 C 107.135 59.889,107.210 60.179,107.299 59.718 C 107.388 59.257,107.384 58.591,107.292 58.236 C 107.199 57.882,107.126 58.259,107.130 59.074 M127.864 59.259 C 127.864 59.972,127.940 60.264,128.033 59.907 C 128.126 59.551,128.126 58.968,128.033 58.611 C 127.940 58.255,127.864 58.546,127.864 59.259 M74.201 62.037 C 74.202 63.667,74.268 64.287,74.346 63.416 C 74.424 62.545,74.423 61.212,74.343 60.453 C 74.264 59.695,74.200 60.407,74.201 62.037 M242.679 60.741 C 242.679 61.454,242.755 61.745,242.848 61.389 C 242.941 61.032,242.941 60.449,242.848 60.093 C 242.755 59.736,242.679 60.028,242.679 60.741 M165.489 63.740 C 165.424 65.594,165.495 67.187,165.648 67.281 C 165.801 67.374,165.926 65.858,165.926 63.911 C 165.926 59.417,165.646 59.308,165.489 63.740 M143.481 67.593 C 143.482 70.648,143.539 71.849,143.609 70.261 C 143.679 68.673,143.678 66.173,143.608 64.705 C 143.538 63.238,143.481 64.537,143.481 67.593 M116.759 62.862 C 117.523 62.942,118.773 62.942,119.537 62.862 C 120.301 62.782,119.676 62.717,118.148 62.717 C 116.620 62.717,115.995 62.782,116.759 62.862 M181.642 72.037 C 181.642 77.130,181.694 79.264,181.758 76.781 C 181.822 74.297,181.822 70.131,181.758 67.522 C 181.695 64.912,181.642 66.944,181.642 72.037 M136.397 67.037 C 136.397 67.954,136.469 68.329,136.558 67.870 C 136.646 67.412,136.646 66.662,136.558 66.204 C 136.469 65.745,136.397 66.120,136.397 67.037 M250.111 68.148 C 250.111 69.269,250.180 69.727,250.265 69.167 C 250.350 68.606,250.350 67.690,250.265 67.130 C 250.180 66.569,250.111 67.028,250.111 68.148 M258.297 68.294 C 258.188 68.579,258.165 69.454,258.246 70.239 C 258.389 71.615,258.396 71.603,258.456 69.932 C 258.513 68.343,258.604 68.184,259.537 68.043 L 260.556 67.889 259.525 67.833 C 258.943 67.802,258.409 68.002,258.297 68.294 M90.134 73.333 C 90.134 75.269,90.196 76.060,90.272 75.093 C 90.349 74.125,90.349 72.542,90.272 71.574 C 90.196 70.606,90.134 71.398,90.134 73.333 M136.390 73.148 C 136.394 73.963,136.470 74.253,136.558 73.792 C 136.647 73.331,136.643 72.665,136.551 72.310 C 136.458 71.956,136.386 72.333,136.390 73.148 M192.875 76.558 C 193.335 76.647,194.002 76.643,194.356 76.551 C 194.710 76.458,194.333 76.386,193.519 76.390 C 192.704 76.394,192.414 76.470,192.875 76.558 M240.093 76.922 C 240.449 77.015,241.032 77.015,241.389 76.922 C 241.745 76.829,241.454 76.753,240.741 76.753 C 240.028 76.753,239.736 76.829,240.093 76.922 M101.587 79.074 C 101.590 80.093,101.662 80.465,101.747 79.902 C 101.832 79.339,101.830 78.506,101.742 78.050 C 101.654 77.595,101.585 78.056,101.587 79.074 M243.084 80.556 C 243.086 81.981,243.153 82.519,243.233 81.751 C 243.313 80.983,243.312 79.816,243.230 79.158 C 243.148 78.501,243.083 79.130,243.084 80.556 M112.685 85.070 C 113.042 85.163,113.625 85.163,113.981 85.070 C 114.338 84.977,114.046 84.901,113.333 84.901 C 112.620 84.901,112.329 84.977,112.685 85.070 M185.283 85.081 C 185.846 85.166,186.679 85.163,187.135 85.076 C 187.590 84.988,187.130 84.918,186.111 84.921 C 185.093 84.924,184.720 84.995,185.283 85.081 M197.500 85.070 C 197.856 85.163,198.440 85.163,198.796 85.070 C 199.153 84.977,198.861 84.901,198.148 84.901 C 197.435 84.901,197.144 84.977,197.500 85.070 M236.944 85.076 C 237.403 85.164,238.153 85.164,238.611 85.076 C 239.069 84.988,238.694 84.916,237.778 84.916 C 236.861 84.916,236.486 84.988,236.944 85.076 M273.426 85.440 C 273.782 85.534,274.366 85.534,274.722 85.440 C 275.079 85.347,274.787 85.271,274.074 85.271 C 273.361 85.271,273.069 85.347,273.426 85.440 M42.134 85.818 C 42.595 85.906,43.261 85.903,43.615 85.810 C 43.970 85.717,43.593 85.645,42.778 85.649 C 41.963 85.653,41.673 85.729,42.134 85.818 M102.690 93.969 C 103.253 94.055,104.087 94.052,104.542 93.964 C 104.998 93.877,104.537 93.807,103.519 93.810 C 102.500 93.812,102.127 93.884,102.690 93.969 M100.471 97.037 C 100.471 97.954,100.543 98.329,100.632 97.870 C 100.720 97.412,100.720 96.662,100.632 96.204 C 100.543 95.745,100.471 96.120,100.471 97.037 M85.310 103.704 C 85.310 105.231,85.375 105.856,85.455 105.093 C 85.535 104.329,85.535 103.079,85.455 102.315 C 85.375 101.551,85.310 102.176,85.310 103.704 M30.534 112.963 C 30.534 118.769,30.585 121.144,30.647 118.241 C 30.710 115.338,30.710 110.588,30.647 107.685 C 30.585 104.782,30.534 107.157,30.534 112.963 M103.981 103.601 C 104.644 103.683,105.727 103.683,106.389 103.601 C 107.051 103.519,106.509 103.452,105.185 103.452 C 103.861 103.452,103.319 103.519,103.981 103.601 M55.670 107.593 C 55.672 108.815,55.742 109.270,55.824 108.604 C 55.906 107.939,55.905 106.939,55.820 106.382 C 55.736 105.826,55.668 106.370,55.670 107.593 M38.982 110.926 C 38.986 111.741,39.062 112.030,39.151 111.570 C 39.239 111.109,39.236 110.442,39.143 110.088 C 39.051 109.734,38.978 110.111,38.982 110.926 M66.776 114.720 C 68.364 114.790,70.864 114.789,72.332 114.719 C 73.799 114.649,72.500 114.592,69.444 114.593 C 66.389 114.593,65.188 114.650,66.776 114.720 M55.677 118.333 C 55.679 119.759,55.746 120.297,55.826 119.529 C 55.906 118.760,55.905 117.594,55.823 116.936 C 55.741 116.279,55.675 116.907,55.677 118.333 M76.433 119.630 C 76.433 121.769,76.495 122.644,76.569 121.574 C 76.644 120.505,76.644 118.755,76.569 117.685 C 76.495 116.616,76.433 117.491,76.433 119.630 M41.591 120.276 C 43.179 120.345,45.679 120.345,47.147 120.275 C 48.614 120.205,47.315 120.148,44.259 120.148 C 41.204 120.149,40.003 120.206,41.591 120.276 M105.278 120.255 C 105.634 120.348,106.218 120.348,106.574 120.255 C 106.931 120.162,106.639 120.086,105.926 120.086 C 105.213 120.086,104.921 120.162,105.278 120.255 M63.818 125.000 C 63.821 126.222,63.890 126.678,63.972 126.012 C 64.055 125.346,64.053 124.346,63.968 123.790 C 63.884 123.233,63.816 123.778,63.818 125.000 M101.019 128.780 C 101.477 128.868,102.227 128.868,102.685 128.780 C 103.144 128.692,102.769 128.619,101.852 128.619 C 100.935 128.619,100.560 128.692,101.019 128.780 M285.296 174.444 C 285.296 175.565,285.366 176.023,285.450 175.463 C 285.535 174.903,285.535 173.986,285.450 173.426 C 285.366 172.866,285.296 173.324,285.296 174.444 M58.418 173.601 C 59.075 173.682,60.242 173.684,61.010 173.604 C 61.779 173.523,61.241 173.457,59.815 173.455 C 58.389 173.453,57.760 173.519,58.418 173.601 M56.019 176.922 C 56.375 177.015,56.958 177.015,57.315 176.922 C 57.671 176.829,57.380 176.753,56.667 176.753 C 55.954 176.753,55.662 176.829,56.019 176.922 M62.685 176.922 C 63.042 177.015,63.625 177.015,63.981 176.922 C 64.338 176.829,64.046 176.753,63.333 176.753 C 62.620 176.753,62.329 176.829,62.685 176.922 M59.171 188.410 C 59.632 188.499,60.298 188.495,60.652 188.403 C 61.007 188.310,60.630 188.237,59.815 188.242 C 59.000 188.246,58.710 188.322,59.171 188.410 M27.123 192.593 C 27.123 193.306,27.199 193.597,27.292 193.241 C 27.386 192.884,27.386 192.301,27.292 191.944 C 27.199 191.588,27.123 191.880,27.123 192.593 M56.024 191.747 C 56.587 191.832,57.420 191.830,57.875 191.742 C 58.331 191.654,57.870 191.585,56.852 191.587 C 55.833 191.590,55.461 191.662,56.024 191.747 M62.130 191.743 C 62.588 191.831,63.338 191.831,63.796 191.743 C 64.255 191.655,63.880 191.582,62.963 191.582 C 62.046 191.582,61.671 191.655,62.130 191.743 M277.758 195.093 L 276.481 196.481 277.870 195.205 C 279.163 194.017,279.430 193.704,279.147 193.704 C 279.085 193.704,278.460 194.329,277.758 195.093 M149.051 201.204 L 147.963 202.407 149.167 201.320 C 150.289 200.306,150.541 200.000,150.254 200.000 C 150.191 200.000,149.649 200.542,149.051 201.204 M27.176 204.630 C 27.176 206.870,27.237 207.739,27.311 206.561 C 27.385 205.382,27.384 203.548,27.310 202.486 C 27.235 201.424,27.175 202.389,27.176 204.630 M234.815 205.000 C 235.506 205.713,236.155 206.296,236.256 206.296 C 236.358 206.296,235.876 205.713,235.185 205.000 C 234.494 204.287,233.845 203.704,233.744 203.704 C 233.642 203.704,234.124 204.287,234.815 205.000 M289.427 206.759 L 287.963 208.333 289.537 206.869 C 291.001 205.508,291.281 205.185,291.001 205.185 C 290.941 205.185,290.232 205.894,289.427 206.759 M56.024 208.414 C 56.587 208.499,57.420 208.497,57.875 208.409 C 58.331 208.321,57.870 208.251,56.852 208.254 C 55.833 208.257,55.461 208.329,56.024 208.414 M62.130 208.410 C 62.588 208.498,63.338 208.498,63.796 208.410 C 64.255 208.321,63.880 208.249,62.963 208.249 C 62.046 208.249,61.671 208.321,62.130 208.410 M254.538 210.185 C 254.542 211.000,254.618 211.290,254.706 210.829 C 254.795 210.368,254.792 209.702,254.699 209.348 C 254.606 208.993,254.534 209.370,254.538 210.185 M59.352 211.737 C 59.708 211.830,60.292 211.830,60.648 211.737 C 61.005 211.644,60.713 211.567,60.000 211.567 C 59.287 211.567,58.995 211.644,59.352 211.737 M134.167 213.519 C 134.172 214.333,134.247 214.623,134.336 214.162 C 134.425 213.702,134.421 213.035,134.329 212.681 C 134.236 212.327,134.163 212.704,134.167 213.519 M56.019 223.218 C 56.375 223.311,56.958 223.311,57.315 223.218 C 57.671 223.125,57.380 223.049,56.667 223.049 C 55.954 223.049,55.662 223.125,56.019 223.218 M62.685 223.218 C 63.042 223.311,63.625 223.311,63.981 223.218 C 64.338 223.125,64.046 223.049,63.333 223.049 C 62.620 223.049,62.329 223.125,62.685 223.218 M58.418 226.564 C 59.075 226.645,60.242 226.647,61.010 226.567 C 61.779 226.486,61.241 226.419,59.815 226.418 C 58.389 226.416,57.760 226.482,58.418 226.564 M133.232 233.601 C 133.890 233.682,135.057 233.684,135.825 233.604 C 136.594 233.523,136.056 233.457,134.630 233.455 C 133.204 233.453,132.575 233.519,133.232 233.601 M30.495 310.000 C 30.495 311.528,30.560 312.153,30.640 311.389 C 30.720 310.625,30.720 309.375,30.640 308.611 C 30.560 307.847,30.495 308.472,30.495 310.000 M135.687 310.556 C 135.686 312.389,135.749 313.186,135.826 312.326 C 135.904 311.466,135.905 309.966,135.828 308.993 C 135.752 308.019,135.688 308.722,135.687 310.556 M48.643 310.370 C 48.643 311.898,48.708 312.523,48.788 311.759 C 48.868 310.995,48.868 309.745,48.788 308.981 C 48.708 308.218,48.643 308.843,48.643 310.370 M114.199 310.370 C 114.199 311.898,114.264 312.523,114.344 311.759 C 114.424 310.995,114.424 309.745,114.344 308.981 C 114.264 308.218,114.199 308.843,114.199 310.370 M54.901 314.815 C 54.901 315.528,54.977 315.819,55.070 315.463 C 55.163 315.106,55.163 314.523,55.070 314.167 C 54.977 313.810,54.901 314.102,54.901 314.815 M84.160 314.815 C 84.160 315.528,84.236 315.819,84.329 315.463 C 84.423 315.106,84.423 314.523,84.329 314.167 C 84.236 313.810,84.160 314.102,84.160 314.815 M60.282 324.336 C 60.743 324.425,61.409 324.421,61.764 324.329 C 62.118 324.236,61.741 324.163,60.926 324.167 C 60.111 324.172,59.821 324.247,60.282 324.336 M89.537 324.335 C 89.995 324.424,90.745 324.424,91.204 324.335 C 91.662 324.247,91.287 324.175,90.370 324.175 C 89.454 324.175,89.079 324.247,89.537 324.335 M74.206 328.333 C 74.204 330.167,74.267 330.963,74.345 330.104 C 74.422 329.244,74.423 327.744,74.347 326.770 C 74.270 325.797,74.207 326.500,74.206 328.333 M30.481 327.407 C 30.481 328.528,30.551 328.986,30.636 328.426 C 30.721 327.866,30.721 326.949,30.636 326.389 C 30.551 325.829,30.481 326.287,30.481 327.407 M112.347 328.148 C 112.347 329.676,112.412 330.301,112.492 329.537 C 112.572 328.773,112.572 327.523,112.492 326.759 C 112.412 325.995,112.347 326.620,112.347 328.148 M133.831 328.333 C 133.832 329.963,133.897 330.584,133.975 329.712 C 134.054 328.841,134.053 327.508,133.973 326.749 C 133.893 325.991,133.829 326.704,133.831 328.333 M58.975 332.593 C 58.975 333.306,59.051 333.597,59.144 333.241 C 59.237 332.884,59.237 332.301,59.144 331.944 C 59.051 331.588,58.975 331.880,58.975 332.593 M118.604 332.593 C 118.604 333.306,118.681 333.597,118.774 333.241 C 118.867 332.884,118.867 332.301,118.774 331.944 C 118.681 331.588,118.604 331.880,118.604 332.593 M38.981 338.403 C 39.338 338.497,39.921 338.497,40.278 338.403 C 40.634 338.310,40.343 338.234,39.630 338.234 C 38.917 338.234,38.625 338.310,38.981 338.403 M102.693 339.630 C 102.693 340.546,102.766 340.921,102.854 340.463 C 102.942 340.005,102.942 339.255,102.854 338.796 C 102.766 338.338,102.693 338.713,102.693 339.630 M64.352 342.113 C 64.810 342.202,65.560 342.202,66.019 342.113 C 66.477 342.025,66.102 341.953,65.185 341.953 C 64.269 341.953,63.894 342.025,64.352 342.113 M90.278 342.113 C 90.736 342.202,91.486 342.202,91.944 342.113 C 92.403 342.025,92.028 341.953,91.111 341.953 C 90.194 341.953,89.819 342.025,90.278 342.113 M123.981 342.113 C 124.440 342.202,125.190 342.202,125.648 342.113 C 126.106 342.025,125.731 341.953,124.815 341.953 C 123.898 341.953,123.523 342.025,123.981 342.113 " stroke="none" fill="#899699" fill-rule="evenodd"></path><path id="path4" d="M122.315 41.747 C 122.875 41.832,123.792 41.832,124.352 41.747 C 124.912 41.662,124.454 41.592,123.333 41.592 C 122.213 41.592,121.755 41.662,122.315 41.747 M44.729 42.120 C 45.395 42.203,46.395 42.201,46.951 42.116 C 47.508 42.032,46.963 41.965,45.741 41.967 C 44.519 41.969,44.063 42.038,44.729 42.120 M147.319 42.484 C 147.780 42.573,148.447 42.569,148.801 42.477 C 149.155 42.384,148.778 42.312,147.963 42.316 C 147.148 42.320,146.858 42.396,147.319 42.484 M252.870 42.484 C 253.329 42.572,254.079 42.572,254.537 42.484 C 254.995 42.395,254.620 42.323,253.704 42.323 C 252.787 42.323,252.412 42.395,252.870 42.484 M249.716 54.444 C 249.716 55.157,249.792 55.449,249.885 55.093 C 249.978 54.736,249.978 54.153,249.885 53.796 C 249.792 53.440,249.716 53.731,249.716 54.444 M217.532 58.148 C 217.532 59.676,217.597 60.301,217.677 59.537 C 217.757 58.773,217.757 57.523,217.677 56.759 C 217.597 55.995,217.532 56.620,217.532 58.148 M53.796 57.292 C 54.153 57.386,54.736 57.386,55.093 57.292 C 55.449 57.199,55.157 57.123,54.444 57.123 C 53.731 57.123,53.440 57.199,53.796 57.292 M165.641 58.148 C 165.641 58.861,165.718 59.153,165.811 58.796 C 165.904 58.440,165.904 57.856,165.811 57.500 C 165.718 57.144,165.641 57.435,165.641 58.148 M210.827 58.889 C 210.827 59.602,210.903 59.894,210.996 59.537 C 211.089 59.181,211.089 58.597,210.996 58.241 C 210.903 57.884,210.827 58.176,210.827 58.889 M65.641 60.000 C 65.641 60.713,65.718 61.005,65.811 60.648 C 65.904 60.292,65.904 59.708,65.811 59.352 C 65.718 58.995,65.641 59.287,65.641 60.000 M136.768 60.370 C 136.768 61.287,136.840 61.662,136.928 61.204 C 137.016 60.745,137.016 59.995,136.928 59.537 C 136.840 59.079,136.768 59.454,136.768 60.370 M31.852 61.227 C 31.852 61.291,32.394 61.832,33.056 62.431 L 34.259 63.519 33.171 62.315 C 32.157 61.193,31.852 60.941,31.852 61.227 M210.827 62.222 C 210.827 62.935,210.903 63.227,210.996 62.870 C 211.089 62.514,211.089 61.931,210.996 61.574 C 210.903 61.218,210.827 61.509,210.827 62.222 M152.008 71.852 C 152.008 76.028,152.062 77.736,152.128 75.648 C 152.194 73.560,152.194 70.144,152.128 68.056 C 152.062 65.968,152.008 67.676,152.008 71.852 M210.862 66.852 C 210.864 68.278,210.931 68.816,211.011 68.047 C 211.091 67.279,211.090 66.112,211.008 65.455 C 210.926 64.797,210.861 65.426,210.862 66.852 M106.760 66.111 C 106.764 66.926,106.840 67.216,106.929 66.755 C 107.017 66.294,107.014 65.628,106.921 65.273 C 106.828 64.919,106.756 65.296,106.760 66.111 M233.426 67.312 C 234.801 67.383,237.051 67.383,238.426 67.312 C 239.801 67.240,238.676 67.182,235.926 67.182 C 233.176 67.182,232.051 67.240,233.426 67.312 M65.698 77.407 C 65.698 79.954,65.757 80.995,65.830 79.722 C 65.902 78.449,65.902 76.366,65.830 75.093 C 65.757 73.819,65.698 74.861,65.698 77.407 M217.529 79.074 C 217.531 80.500,217.598 81.038,217.678 80.270 C 217.758 79.501,217.757 78.334,217.675 77.677 C 217.593 77.019,217.527 77.648,217.529 79.074 M258.234 79.630 C 258.234 80.343,258.310 80.634,258.403 80.278 C 258.497 79.921,258.497 79.338,258.403 78.981 C 258.310 78.625,258.234 78.917,258.234 79.630 M131.764 85.447 C 132.224 85.536,132.891 85.532,133.245 85.440 C 133.599 85.347,133.222 85.274,132.407 85.279 C 131.593 85.283,131.303 85.359,131.764 85.447 M91.958 93.148 C 91.961 94.167,92.032 94.539,92.118 93.976 C 92.203 93.413,92.200 92.580,92.113 92.125 C 92.025 91.669,91.955 92.130,91.958 93.148 M91.967 97.963 C 91.969 99.185,92.038 99.641,92.120 98.975 C 92.203 98.309,92.201 97.309,92.116 96.753 C 92.032 96.196,91.965 96.741,91.967 97.963 M38.982 105.370 C 38.986 106.185,39.062 106.475,39.151 106.014 C 39.239 105.553,39.236 104.887,39.143 104.533 C 39.051 104.179,38.978 104.556,38.982 105.370 M68.796 106.199 C 69.866 106.274,71.616 106.274,72.685 106.199 C 73.755 106.124,72.880 106.063,70.741 106.063 C 68.602 106.063,67.727 106.124,68.796 106.199 M85.310 114.074 C 85.310 115.602,85.375 116.227,85.455 115.463 C 85.535 114.699,85.535 113.449,85.455 112.685 C 85.375 111.921,85.310 112.546,85.310 114.074 M64.206 117.963 C 64.204 119.796,64.267 120.593,64.345 119.733 C 64.422 118.874,64.423 117.374,64.347 116.400 C 64.270 115.426,64.207 116.130,64.206 117.963 M50.464 124.630 C 50.468 125.444,50.544 125.734,50.632 125.273 C 50.721 124.813,50.718 124.146,50.625 123.792 C 50.532 123.438,50.460 123.815,50.464 124.630 M39.537 128.793 C 40.810 128.865,42.894 128.865,44.167 128.793 C 45.440 128.720,44.398 128.661,41.852 128.661 C 39.306 128.661,38.264 128.720,39.537 128.793 M95.102 128.790 C 95.974 128.868,97.307 128.867,98.065 128.788 C 98.824 128.708,98.111 128.644,96.481 128.645 C 94.852 128.647,94.231 128.712,95.102 128.790 M107.130 128.774 C 107.486 128.867,108.069 128.867,108.426 128.774 C 108.782 128.681,108.491 128.604,107.778 128.604 C 107.065 128.604,106.773 128.681,107.130 128.774 M301.600 175.185 C 301.600 176.509,301.667 177.051,301.749 176.389 C 301.832 175.727,301.832 174.644,301.749 173.981 C 301.667 173.319,301.600 173.861,301.600 175.185 M275.347 192.315 L 274.259 193.519 275.463 192.431 C 276.125 191.832,276.667 191.291,276.667 191.227 C 276.667 190.941,276.361 191.193,275.347 192.315 M237.037 201.968 C 237.037 202.031,237.579 202.573,238.241 203.171 L 239.444 204.259 238.357 203.056 C 237.343 201.934,237.037 201.682,237.037 201.968 M184.259 204.815 C 185.055 205.630,185.789 206.296,185.891 206.296 C 185.993 206.296,185.425 205.630,184.630 204.815 C 183.834 204.000,183.100 203.333,182.998 203.333 C 182.896 203.333,183.464 204.000,184.259 204.815 M60.093 306.181 C 60.449 306.274,61.032 306.274,61.389 306.181 C 61.745 306.088,61.454 306.012,60.741 306.012 C 60.028 306.012,59.736 306.088,60.093 306.181 M89.352 306.181 C 89.708 306.274,90.292 306.274,90.648 306.181 C 91.005 306.088,90.713 306.012,90.000 306.012 C 89.287 306.012,88.995 306.088,89.352 306.181 M124.409 314.558 C 124.574 314.723,125.608 314.804,126.706 314.738 L 128.704 314.619 126.406 314.439 C 125.142 314.340,124.243 314.394,124.409 314.558 " stroke="none" fill="#434849" fill-rule="evenodd"></path></g></svg>