<?xml version="1.0" standalone="no"?>
<!DOCTYPE svg PUBLIC "-//W3C//DTD SVG 20010904//EN"
 "http://www.w3.org/TR/2001/REC-SVG-20010904/DTD/svg10.dtd">
<svg version="1.0" xmlns="http://www.w3.org/2000/svg"
 width="1080.000000pt" height="1080.000000pt" viewBox="0 0 1080.000000 1080.000000"
 preserveAspectRatio="xMidYMid meet">
<metadata>
Created by potrace 1.15, written by Peter Selinger 2001-2017
</metadata>
<g transform="translate(0.000000,1080.000000) scale(0.100000,-0.100000)"
fill="#000000" stroke="none">
<path d="M0 5400 l0 -5400 5400 0 5400 0 0 5400 0 5400 -5400 0 -5400 0 0
-5400z m3505 4240 c58 -29 140 -124 155 -180 25 -91 30 -205 29 -558 -2 -306
-5 -376 -16 -388 -20 -19 -182 -20 -208 0 -18 13 -19 26 -17 184 l3 169 -47 7
c-26 3 -100 6 -164 6 l-117 0 -7 -177 c-4 -98 -12 -184 -18 -190 -7 -9 -40
-13 -98 -13 -70 0 -90 3 -102 18 -14 15 -15 61 -8 412 7 354 10 403 29 475 36
135 96 209 203 247 44 15 76 18 193 16 126 -3 145 -6 190 -28z m-2147 5 c118
-35 217 -162 229 -293 8 -87 2 -92 -112 -92 -103 0 -107 2 -124 66 -23 86 -78
120 -179 112 -48 -4 -60 -10 -89 -41 -26 -29 -33 -45 -33 -76 0 -53 40 -87
150 -128 47 -18 123 -47 169 -64 92 -35 144 -77 183 -151 33 -63 33 -208 -1
-292 -32 -80 -99 -147 -174 -175 -87 -32 -270 -33 -348 -3 -118 47 -197 154
-219 296 -15 97 -6 106 109 106 47 0 92 -4 99 -9 7 -4 19 -31 27 -60 26 -98
67 -131 165 -131 75 0 121 32 135 93 18 77 -20 115 -170 167 -200 70 -319 155
-344 246 -17 61 -13 155 9 220 39 111 92 168 191 204 70 25 250 27 327 5z
m3977 4 c114 -11 199 -42 252 -91 36 -34 81 -130 92 -198 14 -82 14 -453 1
-544 -13 -88 -58 -174 -122 -231 -80 -72 -109 -78 -380 -83 l-237 -4 -18 28
c-17 27 -18 60 -15 553 2 565 2 565 54 573 60 9 275 7 373 -3z m-3333 -23 c8
-18 8 -175 2 -575 l-9 -551 55 -11 c75 -15 101 -30 150 -86 98 -112 104 -148
101 -653 -2 -289 -5 -398 -14 -407 -12 -12 -52 -16 -144 -14 -83 2 -85 5 -82
200 l2 166 -167 3 -166 2 0 -159 c0 -88 -4 -171 -10 -185 -9 -25 -12 -26 -104
-26 -72 0 -97 4 -106 15 -10 12 -12 80 -11 283 4 536 24 669 118 772 40 45
121 90 162 90 19 0 21 2 11 15 -9 11 -12 145 -11 566 2 508 3 554 19 565 11 9
49 13 105 14 83 0 88 -1 99 -24z m429 7 c12 -13 14 -95 11 -460 l-3 -443 144
0 c98 0 147 -4 155 -12 18 -18 16 -168 -4 -196 -15 -22 -19 -22 -254 -22 -131
0 -245 3 -254 6 -14 6 -16 64 -16 560 l0 553 22 15 c33 23 180 22 199 -1z
m1654 -5 c51 -74 174 -277 210 -348 15 -30 42 -75 60 -100 17 -25 49 -76 69
-113 21 -38 40 -67 42 -64 3 2 7 143 10 313 5 268 8 311 22 322 10 7 48 12 98
12 127 0 118 30 111 -385 -4 -192 -7 -441 -7 -552 0 -239 7 -226 -121 -215
l-84 7 -82 135 c-98 162 -155 258 -245 409 l-68 115 0 -327 c0 -303 -1 -327
-18 -336 -20 -11 -182 -3 -198 10 -7 6 -10 173 -7 561 3 506 4 554 20 566 10
7 48 12 94 12 70 0 80 -2 94 -22z m2463 4 c16 -16 18 -31 14 -103 -2 -46 -9
-90 -14 -96 -8 -10 -65 -13 -224 -13 l-214 0 0 -105 0 -105 214 0 c162 0 216
-3 224 -13 7 -8 9 -45 5 -105 -3 -51 -6 -93 -7 -94 -1 -1 -100 -4 -221 -8
l-220 -5 -3 -127 -3 -128 168 -2 c92 -1 189 -1 215 1 37 2 51 -2 69 -20 19
-19 21 -29 17 -100 -3 -43 -10 -85 -18 -93 -11 -14 -55 -16 -329 -16 -174 0
-322 4 -330 9 -11 7 -13 105 -12 562 1 506 3 555 18 567 13 9 94 12 325 12
286 0 309 -1 326 -18z m692 8 c139 -23 225 -91 261 -211 38 -126 12 -268 -64
-347 -37 -39 -137 -102 -161 -102 -9 0 -16 -5 -16 -10 0 -20 108 -225 127
-242 11 -10 44 -22 74 -28 67 -13 81 -26 86 -87 4 -42 1 -54 -19 -77 -40 -47
-157 -57 -229 -20 -47 23 -125 120 -155 190 -102 237 -108 249 -137 252 l-27
3 -2 -98 c-1 -54 -3 -150 -3 -214 0 -82 -5 -121 -14 -133 -18 -21 -182 -23
-200 -2 -18 22 -11 1097 8 1119 12 15 39 17 210 17 108 0 225 -5 261 -10z
m-6195 -1177 c16 -15 17 -54 11 -460 l-7 -443 140 0 c77 0 146 -3 155 -6 13
-5 16 -24 16 -103 0 -62 -4 -101 -12 -109 -9 -9 -79 -12 -254 -12 -133 0 -249
3 -258 6 -14 5 -16 36 -16 243 0 130 3 381 7 558 7 372 -4 341 125 342 59 1
80 -3 93 -16z m1936 3 c93 -17 167 -54 208 -103 36 -44 71 -146 71 -207 -1
-84 -55 -181 -128 -227 l-42 -27 43 -25 c82 -49 132 -147 125 -247 -9 -121
-75 -217 -184 -267 -67 -31 -202 -43 -404 -36 -130 4 -147 6 -162 25 -17 19
-18 60 -18 554 0 521 0 534 20 554 19 19 33 20 208 20 111 -1 218 -6 263 -14z
m1941 -2003 c27 -24 23 -40 -32 -132 -28 -46 -49 -84 -48 -85 2 -1 27 -19 56
-39 28 -20 55 -37 58 -37 3 0 37 20 75 45 74 48 108 55 133 29 32 -32 17 -57
-69 -114 l-73 -47 23 -36 c12 -21 24 -39 26 -41 2 -3 29 1 59 8 30 7 63 10 73
8 24 -5 40 -48 27 -72 -10 -18 -59 -40 -91 -40 -26 0 -31 -13 -23 -68 l6 -49
60 -11 c89 -17 122 -56 81 -97 -14 -14 -28 -16 -79 -11 -34 4 -65 3 -67 -1 -3
-5 -8 -28 -12 -53 l-6 -45 50 -28 c56 -31 75 -57 66 -88 -12 -38 -45 -40 -104
-7 -29 16 -54 28 -56 26 -1 -2 -14 -22 -28 -44 l-26 -41 41 -39 c56 -55 63
-70 43 -100 -23 -35 -53 -30 -102 18 l-43 42 -29 -28 -30 -29 25 -49 c19 -38
22 -53 14 -68 -25 -47 -78 -42 -105 10 l-16 31 -28 -23 -29 -23 19 -33 c23
-41 24 -50 2 -74 -29 -32 -74 -20 -101 29 -8 14 -12 14 -36 -2 -18 -12 -25
-23 -20 -34 28 -68 28 -70 9 -90 -28 -32 -62 -27 -86 14 -12 19 -23 35 -26 35
-4 0 -45 -20 -51 -25 -2 -2 4 -20 13 -41 20 -48 13 -82 -20 -90 -37 -9 -54 1
-73 44 -15 34 -20 38 -40 31 -26 -10 -26 -11 -6 -51 12 -23 13 -36 6 -54 -22
-47 -79 -39 -107 16 -17 33 -23 35 -58 19 l-24 -11 15 -59 c16 -58 16 -60 -5
-80 -17 -18 -26 -20 -49 -12 -23 7 -32 20 -45 58 -17 54 -25 60 -61 46 -24 -9
-25 -13 -20 -62 4 -43 2 -55 -13 -66 -46 -33 -95 0 -95 64 l0 33 -62 0 c-59 0
-64 -2 -83 -29 -24 -36 -52 -45 -82 -25 -26 17 -29 45 -9 77 14 20 12 25 -24
64 l-40 42 -49 -15 c-68 -20 -111 -62 -111 -108 0 -55 24 -102 62 -123 27 -14
66 -18 218 -23 201 -6 218 -10 250 -63 24 -38 25 -86 5 -155 -16 -53 -37 -69
-74 -57 -28 9 -35 39 -21 96 9 38 10 53 1 62 -8 8 -69 12 -179 13 -176 1 -220
10 -280 54 -62 46 -102 166 -81 242 5 22 26 57 45 78 35 39 126 90 159 90 12
0 15 5 11 16 -3 9 -6 22 -6 30 0 10 -13 14 -43 14 -49 0 -67 13 -67 50 0 37
18 50 70 50 45 0 47 1 58 38 7 20 8 38 4 40 -4 1 -22 11 -39 22 -43 26 -47 74
-8 92 21 10 35 8 76 -10 l51 -21 31 22 c18 12 34 23 36 25 3 1 -1 8 -7 14 -17
17 -15 54 4 72 27 28 61 20 86 -19 20 -31 27 -35 52 -30 41 7 42 10 12 45 -30
37 -32 47 -9 72 24 26 58 22 97 -12 l34 -30 31 37 c39 47 39 57 1 73 -79 33
-103 84 -55 116 24 15 27 15 75 -10 l50 -26 9 22 c5 13 12 46 16 74 l7 51 -51
32 c-43 26 -51 35 -51 61 0 44 37 60 87 36 19 -9 36 -16 38 -14 1 2 10 26 20
55 l18 52 -36 40 c-42 47 -43 49 -21 79 19 27 53 28 87 2 l25 -20 35 43 35 43
-24 44 c-29 55 -29 72 -4 95 29 26 66 13 90 -35 l20 -39 52 24 c29 14 58 25
65 25 8 0 11 22 10 72 -2 70 -1 72 25 82 38 14 65 -12 73 -73 8 -63 12 -67 67
-74 27 -4 58 -9 71 -12 19 -5 29 5 75 84 30 49 59 92 65 95 23 9 41 6 59 -11z
m3096 2 c95 -29 187 -123 213 -217 16 -62 13 -299 -6 -413 -33 -196 -127 -423
-234 -566 -62 -82 -179 -193 -261 -249 -218 -148 -596 -249 -736 -195 -35 13
-60 16 -105 11 -155 -18 -219 -62 -269 -184 -80 -197 -121 -252 -223 -298 -86
-39 -157 -39 -254 0 -76 30 -92 50 -73 86 14 26 60 26 119 0 57 -26 105 -25
166 4 83 39 108 73 169 231 49 126 110 193 208 226 l53 18 -87 0 c-48 0 -141
10 -208 21 -122 21 -268 28 -305 14 -37 -13 -105 -75 -131 -120 -40 -68 -104
-71 -104 -4 0 47 102 163 181 207 47 25 235 24 379 -1 100 -18 262 -27 274
-15 3 3 3 21 0 40 -5 32 -9 35 -34 31 -16 -2 -61 1 -100 8 -107 18 -207 73
-320 175 -124 113 -173 139 -262 137 -89 -1 -119 25 -84 73 17 23 121 33 182
16 57 -15 146 -75 237 -160 103 -95 198 -142 303 -149 l73 -5 24 55 c54 122
123 169 298 204 159 31 250 74 333 157 114 115 163 254 175 502 6 126 11 157
29 192 77 147 227 213 380 168z m-4269 -119 c26 -24 27 -48 1 -71 -16 -14 -29
-16 -66 -11 -26 3 -64 1 -86 -4 -44 -12 -104 -61 -114 -93 -10 -33 -35 -57
-59 -57 -53 0 -60 63 -15 132 33 50 88 92 147 114 54 20 165 14 192 -10z
m-1983 -236 c158 -13 247 -31 387 -77 188 -62 340 -174 405 -297 l27 -51 0
-285 0 -285 -27 -51 c-65 -123 -217 -235 -405 -297 -142 -47 -229 -64 -395
-77 -487 -39 -952 122 -1078 374 l-30 59 0 277 0 277 30 59 c96 193 411 345
775 373 148 12 170 12 311 1z m1789 -279 c39 -22 75 -86 75 -133 0 -29 -6 -41
-25 -54 -23 -15 -27 -15 -50 0 -14 10 -25 26 -25 39 0 31 -25 64 -54 71 -50
12 -58 78 -13 96 25 10 50 5 92 -19z m-337 -147 c25 -17 27 -34 11 -79 -16
-42 -4 -82 32 -114 48 -42 36 -101 -21 -101 -32 0 -83 50 -104 102 -29 69 -13
171 31 197 24 14 25 14 51 -5z m1973 -604 c41 -12 97 -62 105 -97 7 -28 -19
-63 -48 -63 -11 0 -31 14 -47 30 -24 27 -32 30 -80 28 -42 -2 -56 1 -67 17
-19 26 -18 38 9 62 34 32 72 39 128 23z m-231 -310 c25 -25 25 -30 -1 -80 -26
-49 -20 -96 16 -130 34 -32 34 -76 0 -92 -34 -15 -64 0 -100 51 -51 75 -42
214 18 256 29 20 43 19 67 -5z m-567 -154 c12 -13 30 -35 40 -50 14 -20 26
-26 55 -26 74 0 110 -61 57 -96 -50 -33 -153 -2 -199 59 -37 49 -43 90 -17
116 27 27 37 26 64 -3z m-852 -2112 c42 -40 49 -78 49 -277 l0 -178 -47 3 -48
3 -3 72 c-3 82 -9 87 -93 81 l-44 -3 -3 -77 -3 -78 43 0 c53 0 101 -28 125
-72 15 -27 18 -57 18 -168 0 -149 -10 -180 -68 -224 -40 -30 -153 -30 -194 0
-52 38 -65 81 -65 217 -1 144 12 191 60 223 31 21 31 23 10 26 l-22 3 3 173
c1 96 7 187 12 204 23 82 70 110 172 105 58 -4 72 -9 98 -33z m-2576 -77 c29
-54 56 -97 61 -96 5 1 34 46 64 98 51 88 59 96 89 99 19 2 37 0 42 -5 4 -4 9
-111 10 -238 1 -168 5 -233 14 -240 12 -9 34 -72 79 -225 10 -30 20 -62 23
-70 3 -8 29 55 57 140 l51 155 39 3 c21 2 43 -1 49 -7 10 -10 -124 -432 -146
-459 -6 -8 -26 -12 -51 -10 l-41 3 -56 170 c-31 94 -65 199 -75 235 -10 36
-21 67 -26 70 -4 3 -9 64 -10 135 l-3 130 -43 -77 c-56 -101 -68 -102 -127 -1
l-45 78 0 -95 c0 -52 -3 -112 -6 -132 l-6 -37 98 -3 99 -3 0 -45 0 -45 -92 -3
-93 -3 0 -39 0 -40 90 0 90 0 0 -50 0 -50 -90 0 -90 0 0 -50 0 -49 93 -3 92
-3 0 -45 0 -45 -142 -3 -143 -3 0 474 c0 261 3 477 7 481 4 4 25 6 47 4 39 -3
40 -4 91 -101z m440 -137 l0 -235 -47 -3 -48 -3 0 234 c0 128 3 237 7 241 4 4
25 6 48 4 l40 -3 0 -235z m342 220 c37 -22 63 -67 63 -109 0 -37 -10 -44 -55
-35 -24 4 -39 14 -48 32 -15 32 -60 51 -85 36 -9 -6 -23 -22 -29 -35 -18 -34
-16 -181 1 -224 13 -30 20 -35 49 -35 36 0 62 21 69 55 2 16 12 21 51 23 l47
3 0 -36 c0 -44 -21 -86 -56 -114 l-27 -21 49 0 c59 0 106 -26 131 -72 15 -27
18 -57 18 -168 0 -149 -10 -180 -68 -224 -40 -30 -153 -30 -194 0 -51 37 -65
81 -66 212 -1 132 12 192 48 220 l25 19 -50 7 c-59 8 -104 42 -121 93 -16 51
-15 258 2 308 21 59 66 85 148 85 48 0 75 -5 98 -20z m355 14 c20 -4 52 -19
70 -34 32 -27 33 -31 33 -100 0 -69 -1 -73 -36 -104 -20 -18 -42 -36 -50 -38
-11 -4 -9 -15 11 -54 19 -38 33 -51 58 -59 30 -9 33 -12 30 -45 -3 -34 -4 -35
-51 -38 -42 -3 -51 0 -76 26 -15 17 -40 60 -55 96 -16 36 -32 66 -37 66 -9 0
-12 -40 -13 -140 l-1 -45 -47 -3 -48 -3 0 234 c0 128 3 237 7 240 8 9 155 9
205 1z m435 -14 c57 -35 68 -68 68 -220 0 -117 -3 -139 -20 -169 -34 -58 -67
-76 -142 -76 l-65 0 4 -172 c4 -150 7 -175 23 -193 23 -26 69 -26 95 0 22 22
23 41 20 258 l-1 112 50 0 51 0 0 -182 c0 -160 -3 -188 -20 -226 -25 -56 -89
-87 -161 -79 -89 11 -128 46 -142 127 -5 28 -11 301 -8 348 1 7 15 12 37 12
l36 0 -31 25 c-42 36 -54 81 -54 214 0 139 14 186 62 218 45 31 150 32 198 3z
m355 14 c20 -4 51 -18 69 -33 27 -23 33 -35 37 -83 4 -50 2 -58 -25 -88 l-29
-32 28 -28 c53 -53 28 -164 -45 -195 l-32 -14 38 -1 37 0 0 -50 0 -50 -50 0
-50 0 -2 -187 -3 -188 -45 0 -45 0 2 188 2 187 -55 0 -54 0 0 50 c0 28 3 50 8
50 4 0 6 102 4 227 -1 125 0 233 2 240 6 14 137 18 208 7z m283 -234 l0 -235
-25 -5 -25 -5 0 -235 0 -235 -48 -3 -47 -3 2 238 3 238 23 3 22 3 0 233 c0
128 3 236 7 240 4 4 25 6 48 4 l40 -3 0 -235z m585 50 l0 -189 63 -3 62 -3 -1
-47 c0 -48 0 -48 33 -48 21 0 36 -6 40 -15 3 -9 2 -117 -2 -241 l-7 -225 -41
3 -41 3 -78 128 -77 129 -3 -129 -3 -128 -48 -3 -47 -3 2 238 3 238 23 3 22 3
0 233 c0 128 3 236 7 239 3 4 26 7 50 7 l43 0 0 -190z m-1660 -480 l0 -189 63
-3 c56 -3 62 -5 65 -27 2 -12 1 -34 -2 -47 -6 -24 -9 -24 -116 -24 l-110 0 0
233 c0 129 3 237 7 240 3 4 26 7 50 7 l43 0 0 -190z"/>
<path d="M3198 9435 c-44 -25 -66 -86 -74 -211 l-7 -111 114 -6 c63 -4 140 -7
171 -7 l58 0 -5 97 c-9 162 -34 220 -103 241 -53 16 -121 14 -154 -3z"/>
<path d="M5146 9432 c-3 -5 -9 -158 -12 -340 -5 -245 -4 -335 4 -345 15 -18
204 -11 244 9 55 28 75 109 77 320 3 218 -25 322 -92 343 -47 14 -214 24 -221
13z"/>
<path d="M1824 8266 c-54 -24 -72 -69 -84 -200 -6 -65 -8 -122 -5 -127 4 -5
81 -9 172 -9 l166 0 -5 108 c-5 123 -32 197 -79 219 -42 20 -130 25 -165 9z"/>
<path d="M7003 9433 c-20 -4 -22 -10 -25 -106 -5 -164 -18 -149 129 -145 123
3 125 3 149 31 48 56 24 171 -41 201 -31 14 -172 27 -212 19z"/>
<path d="M2720 8249 c0 -6 -2 -62 -4 -125 l-4 -114 125 0 c124 0 125 0 154 29
56 57 30 175 -46 207 -42 17 -225 20 -225 3z"/>
<path d="M2715 7748 c-9 -62 -1 -166 13 -180 18 -18 170 -12 221 8 48 19 71
55 71 109 0 83 -42 105 -194 105 l-105 0 -6 -42z"/>
<path d="M4513 6200 c-168 -35 -274 -187 -323 -463 -33 -189 -72 -280 -154
-363 -61 -61 -137 -101 -256 -137 -123 -38 -150 -73 -150 -196 0 -55 5 -74 26
-107 33 -51 84 -84 142 -90 139 -16 591 169 848 347 100 69 231 198 281 276
111 171 117 398 15 545 -58 83 -148 151 -232 176 -52 16 -150 22 -197 12z
m155 -72 c14 -14 16 -47 3 -66 -4 -7 -38 -20 -76 -29 -51 -11 -77 -24 -108
-52 -45 -41 -76 -101 -77 -148 0 -37 -22 -63 -54 -63 -34 0 -46 19 -46 75 0
115 95 237 219 281 46 17 123 18 139 2z m81 -185 c53 -43 85 -112 77 -167 -8
-53 -53 -119 -98 -143 -47 -24 -124 -22 -173 5 -58 33 -88 82 -93 150 -3 50 0
63 27 105 41 63 95 90 170 83 39 -4 64 -13 90 -33z"/>
<path d="M4602 5863 c-21 -8 -44 -62 -36 -86 12 -39 35 -57 75 -57 47 0 79 30
79 75 0 55 -62 91 -118 68z"/>
<path d="M7855 6373 c-31 -8 -86 -49 -107 -80 -34 -50 -40 -76 -43 -208 -7
-241 -76 -428 -208 -557 -91 -91 -197 -142 -360 -174 -129 -26 -159 -38 -198
-81 -42 -45 -59 -87 -59 -148 0 -65 16 -108 59 -153 62 -67 149 -80 306 -47
469 98 774 407 876 888 17 78 22 138 23 252 1 165 -8 198 -71 257 -52 49 -141
70 -218 51z"/>
<path d="M1470 6020 c-336 -26 -630 -160 -709 -324 -27 -56 -28 -134 -1 -186
l20 -40 58 39 c173 117 380 181 651 200 359 26 721 -56 920 -208 42 -32 45
-33 58 -15 39 53 42 142 7 212 -83 167 -371 295 -724 322 -74 5 -146 9 -160 9
-14 -1 -68 -5 -120 -9z"/>
<path d="M1485 5620 c-241 -18 -494 -98 -610 -195 l-30 -25 30 -25 c45 -38
170 -99 260 -128 346 -112 825 -88 1110 56 57 28 145 87 145 97 0 16 -144 100
-224 131 -116 45 -270 77 -426 89 -74 5 -139 9 -145 8 -5 0 -55 -4 -110 -8z
m296 -65 c85 -30 106 -77 43 -94 -20 -6 -48 -20 -61 -33 -30 -28 -87 -29 -129
-2 -103 64 -130 108 -81 132 34 16 178 14 228 -3z m-343 -83 c15 -10 48 -25
74 -32 67 -18 84 -40 70 -89 -16 -52 -27 -59 -114 -76 -40 -7 -86 -19 -102
-25 -38 -14 -84 1 -121 40 -49 51 -34 105 48 167 49 38 104 43 145 15z m577
-64 c32 -14 33 -47 2 -76 -30 -29 -234 -129 -279 -137 -26 -5 -39 -2 -51 10
-23 23 -21 38 8 73 14 17 25 39 25 51 0 26 58 57 143 75 79 18 120 19 152 4z"/>
<path d="M1306 5407 c-53 -50 -57 -67 -20 -96 31 -25 46 -26 99 -6 22 8 56 14
75 15 42 0 80 24 80 49 0 13 -15 22 -58 34 -33 9 -65 23 -72 32 -22 26 -55 17
-104 -28z"/>
<path d="M740 5260 c0 -94 3 -121 21 -156 104 -215 539 -358 989 -324 212 16
396 66 536 146 95 54 156 111 189 178 22 44 25 63 25 158 l0 109 -62 -51
c-163 -131 -402 -210 -693 -229 -402 -26 -779 72 -972 252 l-33 31 0 -114z"/>
<path d="M3377 2423 c-8 -10 -17 -40 -19 -68 l-3 -50 69 -3 69 -3 -5 55 c-2
30 -10 62 -17 70 -18 21 -74 20 -94 -1z"/>
<path d="M3324 1939 c-26 -29 -33 -188 -10 -242 13 -32 19 -37 49 -37 60 0 72
25 72 152 0 103 -1 111 -24 129 -30 25 -63 24 -87 -2z"/>
<path d="M1714 1939 c-26 -29 -33 -188 -10 -242 13 -32 19 -37 49 -37 60 0 72
25 72 152 0 103 -1 111 -24 129 -30 25 -63 24 -87 -2z"/>
<path d="M2394 2419 c-26 -29 -33 -188 -10 -242 13 -32 19 -37 49 -37 60 0 72
25 72 152 0 103 -1 111 -24 129 -30 25 -63 24 -87 -2z"/>
<path d="M3703 2043 c2 -5 37 -64 78 -133 l74 -125 2 45 c2 25 4 84 5 133 l3
87 -83 0 c-46 0 -81 -3 -79 -7z"/>
</g>
</svg>
